<?xml version="1.0" encoding="UTF-8"?>
<svg width="168px" height="45px" viewBox="0 0 168 45" version="1.1" xmlns="http://www.w3.org/2000/svg" xmlns:xlink="http://www.w3.org/1999/xlink">
    <!-- Generator: Sketch 53.2 (72643) - https://sketchapp.com -->
    <title>eventer</title>
    <desc>Created with Sketch.</desc>
    <g id="Page-1" stroke="none" stroke-width="1" fill="none" fill-rule="evenodd">
        <g id="eventer" transform="translate(0.020000, 0.660000)" fill="#393939" fill-rule="nonzero">
            <path d="M9.54,37.8 C9.3599991,37.8600003 9.19500075,37.9049998 9.045,37.935 C8.89499925,37.9650002 8.7300009,37.98 8.55,37.98 L7.83,37.98 L7.29,38.25 L7.29,38.16 L6.93,38.16 C6.8099994,38.2200003 6.6300012,38.1900006 6.39,38.07 L6.21,38.07 C5.9699988,38.07 5.7900006,38.0400003 5.67,37.98 C5.5499994,37.8599994 5.3700012,37.8 5.13,37.8 C5.0099994,37.7399997 4.8600009,37.71 4.68,37.71 L4.41,37.71 C4.41,37.5299991 4.3200009,37.44 4.14,37.44 C4.0199994,37.5000003 3.9300003,37.4850004 3.87,37.395 C3.8099997,37.3049995 3.7200006,37.2300003 3.6,37.17 C3.7200006,37.0499994 3.6600012,36.9300006 3.42,36.81 L2.88,36.54 L2.52,36.27 L2.43,36.27 C2.3699997,36.27 2.32500015,36.2849998 2.295,36.315 C2.26499985,36.3450001 2.2200003,36.36 2.16,36.36 C2.16,36.2399994 2.17499985,36.1350004 2.205,36.045 C2.23500015,35.9549995 2.25,35.8500006 2.25,35.73 L2.16,35.64 C2.0399994,35.5199994 1.9200006,35.4450001 1.8,35.415 C1.6799994,35.3849998 1.5600006,35.3100006 1.44,35.19 C1.5000003,35.1299997 1.53,35.0100009 1.53,34.83 L0.99,34.65 C1.1700009,34.4699991 1.1400012,34.2600012 0.9,34.02 C0.8399997,33.9599997 0.81,33.8700006 0.81,33.75 L0.63,33.21 L0.54,33.21 L0.72,32.94 C0.6599997,32.94 0.6000003,32.9100003 0.54,32.85 C0.6000003,32.7899997 0.63,32.7300003 0.63,32.67 L0.45,32.67 C0.45,32.6099997 0.4799997,32.5500003 0.54,32.49 C0.6600006,32.3099991 0.5700015,32.1600006 0.27,32.04 L0.09,31.68 C0.09,31.6199997 0.0600003,31.5600003 0,31.5 C0.0600003,31.5 0.10499985,31.4850001 0.135,31.455 C0.16500015,31.4249998 0.2099997,31.41 0.27,31.41 L0,31.05 L0.36,31.05 C0.4200003,30.8699991 0.3600009,30.7500003 0.18,30.69 L0,30.6 L0.09,30.51 C0.3300012,30.51 0.45,30.3600015 0.45,30.06 C0.3299994,29.7599985 0.3899988,29.5500006 0.63,29.43 C0.3899988,29.1899988 0.3899988,29.0100006 0.63,28.89 C0.63,28.8299997 0.6000003,28.7700003 0.54,28.71 L0.45,28.62 C0.5100003,28.4999994 0.5699997,28.3950004 0.63,28.305 C0.6900003,28.2149995 0.7499997,28.1100006 0.81,27.99 C0.81,27.9299997 0.7800003,27.9 0.72,27.9 C0.5999994,27.7799994 0.5999994,27.72 0.72,27.72 C0.8400006,27.6599997 0.8400006,27.5700006 0.72,27.45 C0.5999994,27.3299994 0.5999994,27.2400003 0.72,27.18 C0.7800003,27.18 0.81,27.0600012 0.81,26.82 C1.0500012,26.82 1.1999997,26.7900003 1.26,26.73 C1.1999997,26.6699997 1.17,26.5500009 1.17,26.37 C1.17,26.3099997 1.1100006,26.2200006 0.99,26.1 L1.44,25.74 C1.5000003,25.74 1.53,25.6500009 1.53,25.47 C1.4699997,25.47 1.44,25.4100006 1.44,25.29 C1.44,25.2299997 1.4100003,25.2 1.35,25.2 C1.4700006,24.9599988 1.5899994,24.8100003 1.71,24.75 C1.8300006,24.6899997 1.9799991,24.66 2.16,24.66 L2.34,23.94 L2.7,23.76 C2.8200006,23.6999997 2.9099997,23.5800009 2.97,23.4 L3.42,23.4 L3.24,23.13 L3.42,23.13 L3.42,22.86 C3.5400006,22.86 3.6,22.8899997 3.6,22.95 L3.78,23.13 L3.87,23.04 L3.87,22.68 L4.23,22.41 C4.4700012,22.5900009 4.7099988,22.5900009 4.95,22.41 L5.4,22.41 C5.4,22.3499997 5.38500015,22.3050002 5.355,22.275 C5.32499985,22.2449998 5.31,22.2000003 5.31,22.14 C5.3700003,22.0799997 5.4299997,22.05 5.49,22.05 C5.5500003,22.05 5.6999988,21.9900006 5.94,21.87 C6.0000003,21.87 6.03,21.8550001 6.03,21.825 C6.03,21.7949999 6.0599997,21.78 6.12,21.78 C6.3600012,21.6599994 6.6899979,21.6 7.11,21.6 C7.2300006,21.6600003 7.33499955,21.6750001 7.425,21.645 C7.51500045,21.6149998 7.5899997,21.6899991 7.65,21.87 C8.0100018,21.6899991 8.3099988,21.7199988 8.55,21.96 C8.6100003,21.96 8.6699997,21.9899997 8.73,22.05 L8.91,22.05 L8.91,21.78 L9.27,22.23 L9.81,22.5 L10.17,22.23 C10.0499994,22.4700012 9.99,22.6199997 9.99,22.68 C10.4700024,22.68 10.7399997,22.8899979 10.8,23.31 C10.8,23.5500012 10.9199988,23.6999997 11.16,23.76 L11.25,23.94 C11.1899997,24.0600006 11.1899997,24.1499997 11.25,24.21 C11.3100003,24.2700003 11.3100003,24.3599994 11.25,24.48 C11.25,24.5400003 11.2799997,24.5999997 11.34,24.66 C11.34,24.7200003 11.3699997,24.75 11.43,24.75 C11.3099994,24.8700006 11.3399991,25.0199991 11.52,25.2 L11.25,25.2 L11.25,25.29 C11.4300009,25.4100006 11.4900003,25.5599991 11.43,25.74 C11.3699997,25.8000003 11.3549998,25.8749996 11.385,25.965 C11.4150001,26.0550005 11.4000003,26.1599994 11.34,26.28 L11.07,26.91 L10.8,27.72 L10.62,27.99 L10.26,28.44 L9.63,29.16 C9.4499991,29.3400009 9.1800018,29.5499988 8.82,29.79 L8.1,30.33 C7.9799994,30.4500006 7.81500105,30.5549995 7.605,30.645 C7.39499895,30.7350004 7.2300006,30.8399994 7.11,30.96 C6.8699988,31.2000012 6.61500135,31.3349998 6.345,31.365 C6.07499865,31.3950001 5.8200012,31.4999991 5.58,31.68 L5.13,31.68 C4.9499991,31.68 4.8899997,31.7399994 4.95,31.86 C4.95,31.9800006 4.96499985,32.0699997 4.995,32.13 C5.02500015,32.1900003 5.04,32.2499997 5.04,32.31 L4.59,32.76 C4.7100006,32.8800006 4.81499955,32.9999994 4.905,33.12 C4.99500045,33.2400006 5.0100003,33.3899991 4.95,33.57 L5.22,33.57 L5.04,33.84 C5.1000003,33.84 5.14499985,33.8549998 5.175,33.885 C5.20500015,33.9150001 5.2799994,33.93 5.4,33.93 C5.2799994,34.0500006 5.2499997,34.1549995 5.31,34.245 C5.3700003,34.3350004 5.4299997,34.4399994 5.49,34.56 C5.6100006,34.8600015 5.7599991,34.9500006 5.94,34.83 C6.0600006,35.1300015 6.1799994,35.2500003 6.3,35.19 L6.48,35.28 L7.38,35.55 C7.5000006,35.6700006 7.5899997,35.73 7.65,35.73 L7.83,35.82 C7.9500006,35.82 8.08499925,35.8050002 8.235,35.775 C8.38500075,35.7449998 8.5199994,35.73 8.64,35.73 C8.7600006,35.73 8.89499925,35.7449998 9.045,35.775 C9.19500075,35.8050002 9.3299994,35.7900003 9.45,35.73 C9.9300024,35.73 10.2599991,35.7000003 10.44,35.64 C10.5600006,35.64 10.6949992,35.6250001 10.845,35.595 C10.9950008,35.5649998 11.1299994,35.55 11.25,35.55 L11.88,35.37 C12.1800015,35.3099997 12.4799985,35.2200006 12.78,35.1 L13.68,34.74 C13.9200012,34.6199994 14.144999,34.5150004 14.355,34.425 C14.5650011,34.3349995 14.7899988,34.2600003 15.03,34.2 C15.2100009,34.1399997 15.404999,34.0950001 15.615,34.065 C15.825001,34.0349998 16.0199991,33.9600006 16.2,33.84 C16.5600018,33.5999988 16.8299991,33.4500003 17.01,33.39 L17.91,32.94 C18.0300006,32.8799997 18.1799991,32.8350002 18.36,32.805 C18.5400009,32.7749998 18.6899994,32.7000006 18.81,32.58 C19.410003,32.3399988 19.8299988,32.1300009 20.07,31.95 L21.24,31.41 L22.05,30.96 C22.2900012,30.8999997 22.6499976,30.7500012 23.13,30.51 L23.49,30.24 C23.6100006,30.24 23.6849998,30.2250002 23.715,30.195 C23.7450002,30.1649999 23.7899997,30.15 23.85,30.15 C23.9100003,30.0899997 23.9699997,30.0749999 24.03,30.105 C24.0900003,30.1350002 24.12,30.0900006 24.12,29.97 C24.12,29.7899991 24.1799994,29.7 24.3,29.7 C24.4200006,29.7 24.5249996,29.6550004 24.615,29.565 L24.93,29.25 C25.0500006,29.1299994 25.1699994,29.07 25.29,29.07 C25.5300012,28.9499994 25.6799997,28.89 25.74,28.89 C25.9200009,28.89 25.9800003,28.9499994 25.92,29.07 C25.8599997,29.2500009 25.7850004,29.3699997 25.695,29.43 C25.6049996,29.4900003 25.5000006,29.5499997 25.38,29.61 L25.2,29.88 C24.9599988,30.0000006 24.735001,30.1349992 24.525,30.285 C24.314999,30.4350007 24.0900012,30.5999991 23.85,30.78 C23.7299994,30.8400003 23.6250005,30.9149995 23.535,31.005 C23.4449996,31.0950004 23.3400006,31.1699997 23.22,31.23 L22.86,31.41 L20.97,32.58 L19.71,33.21 C19.5899994,33.2700003 19.4550008,33.3449996 19.305,33.435 C19.1549993,33.5250005 18.9900009,33.6299994 18.81,33.75 C18.6899994,33.8700006 18.5400009,33.9449998 18.36,33.975 C18.1799991,34.0050001 18.0300006,34.0499997 17.91,34.11 C17.7899994,34.11 17.73,34.1399997 17.73,34.2 C17.6099994,34.3800009 17.4600009,34.47 17.28,34.47 C17.0999991,34.47 16.9500006,34.5299994 16.83,34.65 C16.6499991,34.7100003 16.3800018,34.8599988 16.02,35.1 C15.8999994,35.2200006 15.7800006,35.28 15.66,35.28 L13.68,36.18 C13.3799985,36.3000006 13.1100012,36.4049996 12.87,36.495 C12.6299988,36.5850004 12.3600015,36.6899994 12.06,36.81 C11.8799991,36.9300006 11.685001,37.0349996 11.475,37.125 C11.264999,37.2150004 11.0700009,37.3199994 10.89,37.44 L9.9,37.71 L9.63,37.71 L9.54,37.8 Z M5.22,29.43 C5.3400006,29.5500006 5.3400006,29.6399997 5.22,29.7 C5.0999994,29.7600003 5.0699997,29.8499994 5.13,29.97 L5.04,29.88 C5.04,30.0600009 5.0100003,30.1200003 4.95,30.06 C4.6499985,30.06 4.6199988,30.1799988 4.86,30.42 L4.86,30.51 C4.9800006,30.6900009 5.0999994,30.7500003 5.22,30.69 C5.4000009,30.69 5.6099988,30.6300006 5.85,30.51 L7.38,29.16 C7.5600009,28.9799991 7.7099994,28.785001 7.83,28.575 C7.9500006,28.3649989 8.0999991,28.1700009 8.28,27.99 L8.28,27.72 L8.73,27.09 L8.73,26.73 C8.73,26.6099994 8.7000003,26.5200003 8.64,26.46 L8.64,26.37 C8.64,26.2499994 8.5800006,26.19 8.46,26.19 C8.1599985,26.19 7.9500006,26.1600003 7.83,26.1 L7.74,26.19 C7.74,26.2500003 7.7699997,26.3099997 7.83,26.37 C7.7699997,26.37 7.6800006,26.4299994 7.56,26.55 C7.4999997,26.6700006 7.42500045,26.7449998 7.335,26.775 C7.24499955,26.8050002 7.1700003,26.8799994 7.11,27 C7.11,27.0600003 7.0800003,27.09 7.02,27.09 L6.84,27.09 L6.66,27.18 L6.39,27.81 L5.76,28.44 L5.76,28.71 L6.03,28.71 L5.22,29.43 Z M27.0187195,37.0591004 C27.0662401,36.999827 27.09,36.9167942 27.09,36.81 C26.8499988,36.6899994 26.7000003,36.5700006 26.64,36.45 C26.5799997,36.45 26.4900006,36.3300012 26.37,36.09 C26.1899991,36.09 26.1599994,35.9700012 26.28,35.73 L26.28,35.1 L26.37,34.92 C26.3099997,34.8599997 26.2500003,34.83 26.19,34.83 C26.2500003,34.9500006 26.2200006,35.01 26.1,35.01 C25.9799994,35.01 25.8600006,35.0699994 25.74,35.19 C25.8000003,35.0099991 25.9049993,34.8750004 26.055,34.785 C26.2050008,34.6949995 26.2200006,34.5600009 26.1,34.38 C25.9799994,34.3199997 25.92,34.3349995 25.92,34.425 C25.92,34.5150004 25.8900003,34.5899997 25.83,34.65 C25.7099994,34.4099988 25.5900006,34.1100018 25.47,33.75 C25.5300003,33.6899997 25.56,33.6300003 25.56,33.57 C25.56,33.5099997 25.4700009,33.48 25.29,33.48 C25.29,33.3599994 25.2300006,33.1800012 25.11,32.94 L24.84,32.4 L24.84,32.22 C24.8999978,32.0400066 24.8100087,31.9500075 24.5700302,31.95 C24.6927321,31.8878024 24.7655492,31.8289016 24.795,31.77 C24.8250002,31.7099997 24.8999994,31.68 25.02,31.68 L25.11,31.59 C24.9899994,31.4699994 24.8700006,31.41 24.75,31.41 L24.84,31.32 C24.9000003,31.32 24.9449999,31.3050002 24.975,31.275 C25.0050002,31.2449998 25.0799994,31.23 25.2,31.23 L25.2,31.14 C25.0799994,31.14 24.9600006,31.1100003 24.84,31.05 C24.9600006,30.9299994 24.9750005,30.8250004 24.885,30.735 L24.57,30.42 C24.6900006,30.2999994 24.75,30.1800006 24.75,30.06 L24.39,29.88 C24.5100006,29.8199997 24.57,29.6700012 24.57,29.43 C24.5099997,29.3099994 24.5399994,29.0700018 24.66,28.71 C24.5999997,28.71 24.5550002,28.6950001 24.525,28.665 C24.4949998,28.6349999 24.4200006,28.62 24.3,28.62 C24.2399997,28.62 24.21,28.5300009 24.21,28.35 C24.1499997,28.2899997 24.12,28.2000006 24.12,28.08 L24.39,28.26 C24.5700009,28.0799991 24.6300003,27.8400015 24.57,27.54 C24.4499994,27.4199994 24.5099988,27.36 24.75,27.36 L24.93,27.36 L24.84,27.18 C24.7799997,26.9999991 24.75,26.8800003 24.75,26.82 C24.75,26.7599997 24.8399991,26.6700006 25.02,26.55 L25.02,26.37 C25.02,26.3099997 25.0050002,26.28 24.975,26.28 C24.9449999,26.28 24.93,26.2500003 24.93,26.19 L24.93,26.1 L25.56,25.65 C25.4399994,25.65 25.3500003,25.6200003 25.29,25.56 C25.3500003,25.56 25.38,25.5450001 25.38,25.515 C25.38,25.4849999 25.4099997,25.47 25.47,25.47 L25.47,25.11 C25.5289263,25.1689263 25.5589164,25.2278518 25.5599712,25.2867781 C25.5633083,25.2268644 25.5932216,25.2 25.65,25.2 L25.65,25.02 C25.7700006,24.7799988 25.9499988,24.7199994 26.19,24.84 L26.37,24.84 L26.37,24.75 C26.5500009,24.8700006 26.7899985,24.8700006 27.09,24.75 C27.2700009,24.6299994 27.4199994,24.6299994 27.54,24.75 L27.63,24.57 L27.09,24.39 C27.0299997,24.39 27,24.3600003 27,24.3 C27.1200006,24.2399997 27.2399994,24.21 27.36,24.21 C27.6000012,24.3300006 27.7799994,24.4499994 27.9,24.57 C28.0200006,24.8100012 28.1699991,24.8700006 28.35,24.75 L28.35,25.11 C28.4100003,25.1700003 28.5299991,25.1700003 28.71,25.11 L29.16,24.84 C29.16,24.9000003 29.1749999,24.93 29.205,24.93 C29.2350002,24.93 29.25,24.9599997 29.25,25.02 C29.3100003,25.02 29.3999994,24.9600006 29.52,24.84 L29.61,24.84 L30.06,25.38 C29.8199988,25.6200012 29.8199988,25.8599988 30.06,26.1 C30.06,26.0399997 30.0749998,25.9950002 30.105,25.965 C30.1350001,25.9349998 30.15,25.8900003 30.15,25.83 C30.2100003,25.83 30.24,25.8599997 30.24,25.92 C30.24,26.0400006 30.1950005,26.1449996 30.105,26.235 C30.0149995,26.3250004 30.0599991,26.4299994 30.24,26.55 L30.42,26.37 C30.5400006,26.4300003 30.6,26.6099985 30.6,26.91 L30.78,26.91 C30.78,26.8499997 30.8399994,26.7000012 30.96,26.46 C31.0200003,26.5800006 31.0350002,26.7149992 31.005,26.865 C30.9749999,27.0150008 31.0499991,27.1499994 31.23,27.27 C31.23,27.3900006 31.2150002,27.4649998 31.185,27.495 C31.1549998,27.5250002 31.14,27.5999994 31.14,27.72 C31.14,27.7800003 31.1549998,27.8399997 31.185,27.9 C31.2150002,27.9600003 31.23,28.0199997 31.23,28.08 C31.23,28.2000006 31.2599997,28.3049995 31.32,28.395 C31.3800003,28.4850004 31.3800003,28.5899994 31.32,28.71 C31.1999994,28.9500012 31.2299991,29.07 31.41,29.07 C31.5300006,29.1900006 31.59,29.3399991 31.59,29.52 C31.59,29.7000009 31.6199997,29.79 31.68,29.79 L31.86,30.06 C31.7399994,30.06 31.6500003,30.0899997 31.59,30.15 C31.6500003,30.2100003 31.7099997,30.24 31.77,30.24 L31.5,30.51 L32.04,30.78 C32.04,30.8400003 31.9800006,30.9899988 31.86,31.23 C31.9200003,31.23 31.95,31.2449998 31.95,31.275 C31.95,31.3050002 31.9799997,31.32 32.04,31.32 L32.13,31.32 C32.2500006,31.5000009 32.2350008,31.6649992 32.085,31.815 C31.9349993,31.9650007 31.9799988,32.0999994 32.22,32.22 L31.95,33.21 C32.0100003,33.21 32.0549999,33.1950002 32.085,33.165 C32.1150002,33.1349999 32.1599997,33.12 32.22,33.12 C32.1599997,33.2400006 32.13,33.3899991 32.13,33.57 C32.13,33.6300003 32.1599997,33.6749998 32.22,33.705 C32.2800003,33.7350001 32.3399997,33.8099994 32.4,33.93 L32.4,34.02 L32.31,34.11 C32.1899994,34.4700018 32.2499988,34.7399991 32.49,34.92 L32.31,35.46 L32.22,35.28 C32.22,35.4000006 32.2349999,35.4749998 32.265,35.505 C32.2950002,35.5350001 32.31,35.6099994 32.31,35.73 C32.3700003,35.73 32.4599994,35.7000003 32.58,35.64 L32.49,35.82 L32.4,35.82 C32.4600003,35.8800003 32.49,35.9999991 32.49,36.18 C32.3699994,36.3600009 32.3999991,36.5399991 32.58,36.72 L32.85,36.99 C33.0300009,37.1700009 33.2399988,37.1400012 33.48,36.9 L34.38,35.73 C34.4400003,35.6699997 34.47,35.6100003 34.47,35.55 C34.5300003,35.2499985 34.7399982,34.8600024 35.1,34.38 L35.1,34.29 C35.0399997,34.1699994 35.0549996,34.0800003 35.145,34.02 C35.2350005,33.9599997 35.3399994,33.8700006 35.46,33.75 L35.64,33.39 L36.45,31.41 L37.26,29.52 L37.71,28.44 L38.52,26.64 C38.5800003,26.64 38.61,26.5800006 38.61,26.46 C38.61,26.3399994 38.7299988,26.1000018 38.97,25.74 L39.24,25.11 C39.3600006,24.6899979 39.4799994,24.4200006 39.6,24.3 C39.7200006,24.0599988 39.8099997,23.835001 39.87,23.625 C39.9300003,23.414999 40.0199994,23.1900012 40.14,22.95 C40.2600006,22.7699991 40.3799994,22.5000018 40.5,22.14 L41.22,20.52 L41.4,20.16 L42.21,18.36 C42.2700003,18.2399994 42.4199988,18.0600012 42.66,17.82 C42.7800006,17.8800003 42.84,17.9699994 42.84,18.09 C42.84,18.2100006 42.8100003,18.3299994 42.75,18.45 C42.75,18.5700006 42.7200003,18.6899994 42.66,18.81 L42.48,19.17 L42.39,19.17 C42.39,19.4700015 42.3300006,19.724999 42.21,19.935 C42.0899994,20.145001 41.9700006,20.3999985 41.85,20.7 C41.7899997,21.0000015 41.7150004,21.2699988 41.625,21.51 C41.5349996,21.7500012 41.4300006,22.0199985 41.31,22.32 L41.04,23.04 L40.95,23.13 C40.7699991,23.2500006 40.6949998,23.3849992 40.725,23.535 C40.7550002,23.6850007 40.7400003,23.8499991 40.68,24.03 L40.41,24.57 L40.14,25.2 L39.87,26.19 L39.87,26.28 C39.6299988,26.5800015 39.4800003,26.8949984 39.42,27.225 C39.3599997,27.5550017 39.2400009,27.8699985 39.06,28.17 C38.9399994,28.2900006 38.88,28.4399991 38.88,28.62 C38.88,28.8000009 38.8500003,28.9799991 38.79,29.16 L38.79,29.25 L38.52,29.7 L38.16,30.69 C38.16,30.8100006 38.1450001,30.8999997 38.115,30.96 C38.0849999,31.0200003 38.07,31.1099994 38.07,31.23 C37.9499994,31.7100024 37.8300006,32.0699988 37.71,32.31 C37.5899994,32.4300006 37.53,32.5799991 37.53,32.76 C37.53,32.9400009 37.4700006,33.0899994 37.35,33.21 C37.35,33.2700003 37.3350001,33.3149998 37.305,33.345 C37.2749999,33.3750001 37.26,33.4199997 37.26,33.48 C37.1999997,33.48 37.17,33.5099997 37.17,33.57 L36.9,34.38 L36.63,35.1 C36.5699997,35.1 36.54,35.1299997 36.54,35.19 C36.6000003,35.3100006 36.5850004,35.4299994 36.495,35.55 C36.4049995,35.6700006 36.3000006,35.7899994 36.18,35.91 L36.18,36 C36.18,36.1200006 36.1500003,36.18 36.09,36.18 L35.82,36.81 L35.64,37.17 C35.64,37.2900006 35.5800006,37.4699988 35.46,37.71 L35.28,38.07 C35.2199997,38.1900006 35.19,38.3099994 35.19,38.43 L34.92,38.7 C34.7999994,38.8200006 34.7250001,38.9399994 34.695,39.06 C34.6649999,39.1800006 34.5900006,39.2999994 34.47,39.42 L34.38,39.51 C34.38,39.7500012 34.3200006,39.8400003 34.2,39.78 C34.1399997,39.78 34.0500006,39.8399994 33.93,39.96 C33.6899988,40.2000012 33.5100006,40.3499997 33.39,40.41 C33.0899985,40.2899994 32.94,40.4099982 32.94,40.77 C32.8199994,40.77 32.7300003,40.7400003 32.67,40.68 C32.5499994,40.5599994 32.4150008,40.5149999 32.265,40.545 C32.1149993,40.5750001 31.9800006,40.59 31.86,40.59 L31.5,40.77 C31.4399997,40.77 31.3500006,40.6200015 31.23,40.32 C31.23,40.3800003 31.2150002,40.41 31.185,40.41 C31.1549998,40.41 31.14,40.4399997 31.14,40.5 L30.87,40.32 L30.51,40.14 L30.51,40.05 L30.42,40.14 L30.42,39.96 L30.33,39.96 L30.06,40.32 C30.06,40.1399991 30.0300003,39.9900006 29.97,39.87 L29.79,39.87 C29.4899985,39.8099997 29.3100003,39.6000018 29.25,39.24 C29.25,38.9999988 29.1300012,38.8500003 28.89,38.79 L28.71,38.52 L28.35,38.25 C28.35,38.0099988 28.2600009,37.9199997 28.08,37.98 L27.99,37.98 C27.8099991,37.7999991 27.6300009,37.7999991 27.45,37.98 L27.27,37.8 L27.45,37.8 C27.5700006,37.6799994 27.6000003,37.5900003 27.54,37.53 L27.54,37.17 C27.4199994,37.17 27.3300003,37.1250004 27.27,37.035 C27.2111002,36.9466504 27.1232921,36.9594845 27.0065729,37.0735028 L27.0187195,37.0591004 Z M32.58,36.72 C32.4599994,36.72 32.4,36.7799994 32.4,36.9 C32.5200006,37.0800009 32.6399994,37.1400003 32.76,37.08 C32.6399994,36.9599994 32.58,36.8400006 32.58,36.72 Z M28.53,24.75 L28.53,24.93 C28.53,24.8699997 28.5150002,24.84 28.485,24.84 C28.4549999,24.84 28.44,24.8100003 28.44,24.75 L28.53,24.75 Z M52.11,37.8 C51.9299991,37.8600003 51.7650008,37.9049998 51.615,37.935 C51.4649993,37.9650002 51.3000009,37.98 51.12,37.98 L50.4,37.98 L49.86,38.25 L49.86,38.16 L49.5,38.16 C49.3799994,38.2200003 49.2000012,38.1900006 48.96,38.07 L48.78,38.07 C48.5399988,38.07 48.3600006,38.0400003 48.24,37.98 C48.1199994,37.8599994 47.9400012,37.8 47.7,37.8 C47.5799994,37.7399997 47.4300009,37.71 47.25,37.71 L46.98,37.71 C46.98,37.5299991 46.8900009,37.44 46.71,37.44 C46.5899994,37.5000003 46.5000003,37.4850004 46.44,37.395 C46.3799997,37.3049995 46.2900006,37.2300003 46.17,37.17 C46.2900006,37.0499994 46.2300012,36.9300006 45.99,36.81 L45.45,36.54 L45.09,36.27 L45,36.27 C44.9399997,36.27 44.8950001,36.2849998 44.865,36.315 C44.8349999,36.3450001 44.7900003,36.36 44.73,36.36 C44.73,36.2399994 44.7449998,36.1350004 44.775,36.045 C44.8050002,35.9549995 44.82,35.8500006 44.82,35.73 L44.73,35.64 C44.6099994,35.5199994 44.4900006,35.4450001 44.37,35.415 C44.2499994,35.3849998 44.1300006,35.3100006 44.01,35.19 C44.0700003,35.1299997 44.1,35.0100009 44.1,34.83 L43.56,34.65 C43.7400009,34.4699991 43.7100012,34.2600012 43.47,34.02 C43.4099997,33.9599997 43.38,33.8700006 43.38,33.75 L43.2,33.21 L43.11,33.21 L43.29,32.94 C43.2299997,32.94 43.1700003,32.9100003 43.11,32.85 C43.1700003,32.7899997 43.2,32.7300003 43.2,32.67 L43.02,32.67 C43.02,32.6099997 43.0499997,32.5500003 43.11,32.49 C43.2300006,32.3099991 43.1400015,32.1600006 42.84,32.04 L42.66,31.68 C42.66,31.6199997 42.6300003,31.5600003 42.57,31.5 C42.6300003,31.5 42.6749999,31.4850001 42.705,31.455 C42.7350002,31.4249998 42.7799997,31.41 42.84,31.41 L42.57,31.05 L42.93,31.05 C42.9900003,30.8699991 42.9300009,30.7500003 42.75,30.69 L42.57,30.6 L42.66,30.51 C42.9000012,30.51 43.02,30.3600015 43.02,30.06 C42.8999994,29.7599985 42.9599988,29.5500006 43.2,29.43 C42.9599988,29.1899988 42.9599988,29.0100006 43.2,28.89 C43.2,28.8299997 43.1700003,28.7700003 43.11,28.71 L43.02,28.62 C43.0800003,28.4999994 43.1399997,28.3950004 43.2,28.305 C43.2600003,28.2149995 43.3199997,28.1100006 43.38,27.99 C43.38,27.9299997 43.3500003,27.9 43.29,27.9 C43.1699994,27.7799994 43.1699994,27.72 43.29,27.72 C43.4100006,27.6599997 43.4100006,27.5700006 43.29,27.45 C43.1699994,27.3299994 43.1699994,27.2400003 43.29,27.18 C43.3500003,27.18 43.38,27.0600012 43.38,26.82 C43.6200012,26.82 43.7699997,26.7900003 43.83,26.73 C43.7699997,26.6699997 43.74,26.5500009 43.74,26.37 C43.74,26.3099997 43.6800006,26.2200006 43.56,26.1 L44.01,25.74 C44.0700003,25.74 44.1,25.6500009 44.1,25.47 C44.0399997,25.47 44.01,25.4100006 44.01,25.29 C44.01,25.2299997 43.9800003,25.2 43.92,25.2 C44.0400006,24.9599988 44.1599994,24.8100003 44.28,24.75 C44.4000006,24.6899997 44.5499991,24.66 44.73,24.66 L44.91,23.94 L45.27,23.76 C45.3900006,23.6999997 45.4799997,23.5800009 45.54,23.4 L45.99,23.4 L45.81,23.13 L45.99,23.13 L45.99,22.86 C46.1100006,22.86 46.17,22.8899997 46.17,22.95 L46.35,23.13 L46.44,23.04 L46.44,22.68 L46.8,22.41 C47.0400012,22.5900009 47.2799988,22.5900009 47.52,22.41 L47.97,22.41 C47.97,22.3499997 47.9550001,22.3050002 47.925,22.275 C47.8949999,22.2449998 47.88,22.2000003 47.88,22.14 C47.9400003,22.0799997 47.9999997,22.05 48.06,22.05 C48.1200003,22.05 48.2699988,21.9900006 48.51,21.87 C48.5700003,21.87 48.6,21.8550001 48.6,21.825 C48.6,21.7949999 48.6299997,21.78 48.69,21.78 C48.9300012,21.6599994 49.2599979,21.6 49.68,21.6 C49.8000006,21.6600003 49.9049996,21.6750001 49.995,21.645 C50.0850004,21.6149998 50.1599997,21.6899991 50.22,21.87 C50.5800018,21.6899991 50.8799988,21.7199988 51.12,21.96 C51.1800003,21.96 51.2399997,21.9899997 51.3,22.05 L51.48,22.05 L51.48,21.78 L51.84,22.23 L52.38,22.5 L52.74,22.23 C52.6199994,22.4700012 52.56,22.6199997 52.56,22.68 C53.0400024,22.68 53.3099997,22.8899979 53.37,23.31 C53.37,23.5500012 53.4899988,23.6999997 53.73,23.76 L53.82,23.94 C53.7599997,24.0600006 53.7599997,24.1499997 53.82,24.21 C53.8800003,24.2700003 53.8800003,24.3599994 53.82,24.48 C53.82,24.5400003 53.8499997,24.5999997 53.91,24.66 C53.91,24.7200003 53.9399997,24.75 54,24.75 C53.8799994,24.8700006 53.9099991,25.0199991 54.09,25.2 L53.82,25.2 L53.82,25.29 C54.0000009,25.4100006 54.0600003,25.5599991 54,25.74 C53.9399997,25.8000003 53.9249999,25.8749996 53.955,25.965 C53.9850001,26.0550005 53.9700003,26.1599994 53.91,26.28 L53.64,26.91 L53.37,27.72 L53.19,27.99 L52.83,28.44 L52.2,29.16 C52.0199991,29.3400009 51.7500018,29.5499988 51.39,29.79 L50.67,30.33 C50.5499994,30.4500006 50.385001,30.5549995 50.175,30.645 C49.9649989,30.7350004 49.8000006,30.8399994 49.68,30.96 C49.4399988,31.2000012 49.1850013,31.3349998 48.915,31.365 C48.6449986,31.3950001 48.3900012,31.4999991 48.15,31.68 L47.7,31.68 C47.5199991,31.68 47.4599997,31.7399994 47.52,31.86 C47.52,31.9800006 47.5349999,32.0699997 47.565,32.13 C47.5950002,32.1900003 47.61,32.2499997 47.61,32.31 L47.16,32.76 C47.2800006,32.8800006 47.3849996,32.9999994 47.475,33.12 C47.5650005,33.2400006 47.5800003,33.3899991 47.52,33.57 L47.79,33.57 L47.61,33.84 C47.6700003,33.84 47.7149998,33.8549998 47.745,33.885 C47.7750002,33.9150001 47.8499994,33.93 47.97,33.93 C47.8499994,34.0500006 47.8199997,34.1549995 47.88,34.245 C47.9400003,34.3350004 47.9999997,34.4399994 48.06,34.56 C48.1800006,34.8600015 48.3299991,34.9500006 48.51,34.83 C48.6300006,35.1300015 48.7499994,35.2500003 48.87,35.19 L49.05,35.28 L49.95,35.55 C50.0700006,35.6700006 50.1599997,35.73 50.22,35.73 L50.4,35.82 C50.5200006,35.82 50.6549993,35.8050002 50.805,35.775 C50.9550008,35.7449998 51.0899994,35.73 51.21,35.73 C51.3300006,35.73 51.4649993,35.7449998 51.615,35.775 C51.7650008,35.8050002 51.8999994,35.7900003 52.02,35.73 C52.5000024,35.73 52.8299991,35.7000003 53.01,35.64 C53.1300006,35.64 53.2649993,35.6250001 53.415,35.595 C53.5650007,35.5649998 53.6999994,35.55 53.82,35.55 L54.45,35.37 C54.7500015,35.3099997 55.0499985,35.2200006 55.35,35.1 L56.25,34.74 C56.4900012,34.6199994 56.7149989,34.5150004 56.925,34.425 C57.135001,34.3349995 57.3599988,34.2600003 57.6,34.2 C57.7800009,34.1399997 57.974999,34.0950001 58.185,34.065 C58.395001,34.0349998 58.5899991,33.9600006 58.77,33.84 C59.1300018,33.5999988 59.3999991,33.4500003 59.58,33.39 L60.48,32.94 C60.6000006,32.8799997 60.7499991,32.8350002 60.93,32.805 C61.1100009,32.7749998 61.2599994,32.7000006 61.38,32.58 C61.980003,32.3399988 62.3999988,32.1300009 62.64,31.95 L63.81,31.41 L64.62,30.96 C64.8600012,30.8999997 65.2199976,30.7500012 65.7,30.51 L66.06,30.24 C66.1800006,30.24 66.2549998,30.2250002 66.285,30.195 C66.3150002,30.1649999 66.3599997,30.15 66.42,30.15 C66.4800003,30.0899997 66.5399997,30.0749999 66.6,30.105 C66.6600003,30.1350002 66.69,30.0900006 66.69,29.97 C66.69,29.7899991 66.7499994,29.7 66.87,29.7 C66.9900006,29.7 67.0949996,29.6550004 67.185,29.565 L67.5,29.25 C67.6200006,29.1299994 67.7399994,29.07 67.86,29.07 C68.1000012,28.9499994 68.2499997,28.89 68.31,28.89 C68.4900009,28.89 68.5500003,28.9499994 68.49,29.07 C68.4299997,29.2500009 68.3550005,29.3699997 68.265,29.43 C68.1749995,29.4900003 68.0700006,29.5499997 67.95,29.61 L67.77,29.88 C67.5299988,30.0000006 67.305001,30.1349992 67.095,30.285 C66.884999,30.4350007 66.6600012,30.5999991 66.42,30.78 C66.2999994,30.8400003 66.1950005,30.9149995 66.105,31.005 C66.0149995,31.0950004 65.9100006,31.1699997 65.79,31.23 L65.43,31.41 L63.54,32.58 L62.28,33.21 C62.1599994,33.2700003 62.0250008,33.3449996 61.875,33.435 C61.7249992,33.5250005 61.5600009,33.6299994 61.38,33.75 C61.2599994,33.8700006 61.1100009,33.9449998 60.93,33.975 C60.7499991,34.0050001 60.6000006,34.0499997 60.48,34.11 C60.3599994,34.11 60.3,34.1399997 60.3,34.2 C60.1799994,34.3800009 60.0300009,34.47 59.85,34.47 C59.6699991,34.47 59.5200006,34.5299994 59.4,34.65 C59.2199991,34.7100003 58.9500018,34.8599988 58.59,35.1 C58.4699994,35.2200006 58.3500006,35.28 58.23,35.28 L56.25,36.18 C55.9499985,36.3000006 55.6800012,36.4049996 55.44,36.495 C55.1999988,36.5850004 54.9300015,36.6899994 54.63,36.81 C54.4499991,36.9300006 54.2550011,37.0349996 54.045,37.125 C53.8349989,37.2150004 53.6400009,37.3199994 53.46,37.44 L52.47,37.71 L52.2,37.71 L52.11,37.8 Z M47.79,29.43 C47.9100006,29.5500006 47.9100006,29.6399997 47.79,29.7 C47.6699994,29.7600003 47.6399997,29.8499994 47.7,29.97 L47.61,29.88 C47.61,30.0600009 47.5800003,30.1200003 47.52,30.06 C47.2199985,30.06 47.1899988,30.1799988 47.43,30.42 L47.43,30.51 C47.5500006,30.6900009 47.6699994,30.7500003 47.79,30.69 C47.9700009,30.69 48.1799988,30.6300006 48.42,30.51 L49.95,29.16 C50.1300009,28.9799991 50.2799994,28.785001 50.4,28.575 C50.5200006,28.3649989 50.6699991,28.1700009 50.85,27.99 L50.85,27.72 L51.3,27.09 L51.3,26.73 C51.3,26.6099994 51.2700003,26.5200003 51.21,26.46 L51.21,26.37 C51.21,26.2499994 51.1500006,26.19 51.03,26.19 C50.7299985,26.19 50.5200006,26.1600003 50.4,26.1 L50.31,26.19 C50.31,26.2500003 50.3399997,26.3099997 50.4,26.37 C50.3399997,26.37 50.2500006,26.4299994 50.13,26.55 C50.0699997,26.6700006 49.9950005,26.7449998 49.905,26.775 C49.8149996,26.8050002 49.7400003,26.8799994 49.68,27 C49.68,27.0600003 49.6500003,27.09 49.59,27.09 L49.41,27.09 L49.23,27.18 L48.96,27.81 L48.33,28.44 L48.33,28.71 L48.6,28.71 L47.79,29.43 Z M74.426088,24.4800054 C74.3086954,24.4803296 74.25,24.4953276 74.25,24.525 C74.25,24.5550002 74.2200003,24.57 74.16,24.57 C74.16,24.6900006 74.1749999,24.75 74.205,24.75 C74.2350002,24.75 74.25,24.8099994 74.25,24.93 L74.25,25.02 C74.3700006,25.1400006 74.3850005,25.2149998 74.295,25.245 C74.2049996,25.2750002 74.16,25.3499994 74.16,25.47 C74.0399994,25.6500009 74.0699991,25.74 74.25,25.74 C74.1899997,25.8000003 74.1000006,25.83 73.98,25.83 L73.89,25.83 C73.5899985,26.0100009 73.6799976,26.1899991 74.16,26.37 L73.89,26.82 L73.98,26.91 C73.8599994,26.91 73.7700003,26.9399997 73.71,27 C73.6499997,27.0600003 73.6499997,27.09 73.71,27.09 C73.7700003,27.2700009 73.7100009,27.36 73.53,27.36 L73.62,27.99 C73.6800003,27.99 73.7249999,28.0049998 73.755,28.035 C73.7839806,28.0639806 73.8269585,28.0789632 73.8839348,28.079948 C73.7640383,28.0862729 73.71,28.1461165 73.71,28.26 L73.8,28.35 C73.8,28.4700006 73.7550005,28.5449999 73.665,28.575 C73.5749996,28.6050001 73.5899994,28.6799994 73.71,28.8 L73.53,29.34 L73.8,29.34 L73.89,29.43 L73.53,29.61 C73.4099994,29.6700003 73.2900006,29.7599994 73.17,29.88 C73.2300003,29.88 73.26,29.8949998 73.26,29.925 C73.26,29.9550001 73.2899997,29.97 73.35,29.97 C73.0499985,30.1500009 73.0499985,30.24 73.35,30.24 C73.2299994,30.3600006 73.1849998,30.4499997 73.215,30.51 L73.44,30.96 L73.17,31.23 C73.17,31.2900003 73.1849998,31.3499997 73.215,31.41 C73.2450002,31.4700003 73.26,31.5599994 73.26,31.68 L73.44,31.68 C73.5000003,31.68 73.53,31.6500003 73.53,31.59 C73.5900003,31.7100006 73.5900003,31.7999997 73.53,31.86 L73.35,32.22 C73.35,32.3400006 73.3050005,32.4149999 73.215,32.445 C73.1249996,32.4750001 73.0500003,32.5499994 72.99,32.67 L73.35,32.67 C73.0499985,32.9100012 72.9899991,33.1199991 73.17,33.3 L72.9,33.48 C73.2000015,33.6000006 73.2900006,33.8399982 73.17,34.2 L73.17,34.29 C73.17,34.3500003 73.1999997,34.38 73.26,34.38 C73.5000012,34.5000006 73.6499997,34.5300003 73.71,34.47 C73.8300006,34.4099997 73.9199997,34.3949998 73.98,34.425 C74.0400003,34.4550001 74.1299994,34.47 74.25,34.47 C74.25,34.3499994 74.2799997,34.2600003 74.34,34.2 L74.52,34.02 C74.6400006,33.7799988 74.7,33.6300003 74.7,33.57 L75.24,33.39 C75.5400015,33.2099991 75.7799991,32.9400018 75.96,32.58 L76.68,31.86 L77.49,30.87 C77.49,30.8099997 77.5199997,30.78 77.58,30.78 C77.58,30.7199997 77.5949999,30.69 77.625,30.69 C77.6550002,30.69 77.67,30.6600003 77.67,30.6 L77.94,30.33 C77.94,30.2699997 77.9699997,30.24 78.03,30.24 C78.1500006,29.9999988 78.2699994,29.8200006 78.39,29.7 L78.66,29.43 L78.84,29.16 L79.02,28.98 C79.0800003,28.9199997 79.1249998,28.8600003 79.155,28.8 C79.1850002,28.7399997 79.2299997,28.6800003 79.29,28.62 L79.83,27.81 L79.83,27.72 C80.0100009,27.5399991 80.1299997,27.3600009 80.19,27.18 C80.2500003,26.9999991 80.3999988,26.8500006 80.64,26.73 C80.7000003,26.6699997 80.73,26.6100003 80.73,26.55 C80.8500006,26.3099988 80.9699994,26.1300006 81.09,26.01 C81.1500003,25.9499997 81.18,25.8900003 81.18,25.83 C81.1199997,25.7699997 81.2099988,25.6200012 81.45,25.38 L81.99,24.75 C82.1100006,24.4499985 82.2299994,24.3 82.35,24.3 C82.4700006,23.9399982 82.5899994,23.7300003 82.71,23.67 L82.8,23.58 C82.8,23.3399988 82.8599994,23.1450008 82.98,22.995 C83.1000006,22.8449992 83.2199994,22.7100006 83.34,22.59 C83.4600006,22.3499988 83.5799994,22.1700006 83.7,22.05 L83.97,21.51 L84.15,21.33 C84.2100003,21.2699997 84.2250002,21.1950005 84.195,21.105 C84.1649999,21.0149995 84.2099994,20.9400003 84.33,20.88 C84.4500006,20.8199997 84.51,20.7600003 84.51,20.7 C84.51,20.6399997 84.5699994,20.5500006 84.69,20.43 C84.7500003,20.3699997 84.78,20.3100003 84.78,20.25 L84.96,20.25 C85.0800006,20.3700006 85.14,20.3100012 85.14,20.07 C85.14,20.0099997 85.1999994,19.9200006 85.32,19.8 C85.5600012,19.6799994 85.6200006,19.4100021 85.5,18.99 C85.5600003,18.99 85.6049999,18.9750001 85.635,18.945 C85.6650001,18.9149999 85.7099997,18.9 85.77,18.9 C85.77,18.7199991 85.8449993,18.5550007 85.995,18.405 C86.1450008,18.2549992 86.2799994,18.2099997 86.4,18.27 C86.4600003,18.0899991 86.4300006,18 86.31,18 C86.31,17.9399997 86.3249998,17.8950001 86.355,17.865 C86.3850001,17.8349998 86.4,17.7900003 86.4,17.73 C86.4,17.6699997 86.4449996,17.5950004 86.535,17.505 C86.6250005,17.4149995 86.6999997,17.3999997 86.76,17.46 C86.8200003,17.46 86.85,17.4300003 86.85,17.37 L86.85,17.28 C86.85,17.2221259 86.8220888,17.1642526 86.7662655,17.1063786 C86.8394747,17.1660397 86.9227565,17.19 87.03,17.19 L87.21,16.65 C87.21,16.5299994 87.2999991,16.47 87.48,16.47 C87.6600009,16.5300003 87.75,16.4400012 87.75,16.2 L88.11,16.2 L88.38,15.93 C88.38,15.9900003 88.4399994,16.02 88.56,16.02 L88.56,15.66 L88.83,16.02 C88.83,16.0800003 88.8899994,16.11 89.01,16.11 C89.1900009,15.9299991 89.2500003,15.8100003 89.19,15.75 L89.19,15.57 L89.55,16.02 C89.6700006,15.7199985 89.8199991,15.6599991 90,15.84 L90.18,15.84 L90.36,16.02 C90.2399994,16.1400006 90.2999988,16.2 90.54,16.2 L90.63,16.2 C90.6900003,16.2 90.72,16.1850002 90.72,16.155 C90.72,16.1249999 90.7499997,16.11 90.81,16.11 L90.9,16.2 C90.9,16.2600003 90.9299997,16.29 90.99,16.29 L91.17,16.29 L91.53,16.56 C91.53,16.6800006 91.5449999,16.7849996 91.575,16.875 C91.6050001,16.9650004 91.62,17.0399997 91.62,17.1 C91.8000009,17.1 91.89,17.1299997 91.89,17.19 L92.07,17.46 C92.1300003,17.5200003 92.1899997,17.5649998 92.25,17.595 C92.3100003,17.6250001 92.2800006,17.6999994 92.16,17.82 C92.16,17.8800003 92.1899997,17.9249998 92.25,17.955 C92.3100003,17.9850001 92.34,18.0599994 92.34,18.18 C92.2799997,18.18 92.2200003,18.1500003 92.16,18.09 L92.34,18.36 L92.16,18.36 C92.16,18.4200003 92.1749999,18.45 92.205,18.45 C92.2350002,18.45 92.25,18.4799997 92.25,18.54 C92.25,18.6000003 92.2649998,18.6449998 92.295,18.675 C92.3250001,18.7050001 92.34,18.7499997 92.34,18.81 L92.34,18.9 C92.5200009,19.1400012 92.4900012,19.2899997 92.25,19.35 C92.0699991,19.5300009 92.1599982,19.6499997 92.52,19.71 L92.25,19.89 C92.4900012,19.9500003 92.5650005,20.0549993 92.475,20.205 C92.3849996,20.3550008 92.3999994,20.43 92.52,20.43 L92.25,20.61 C92.3100003,20.61 92.34,20.6249999 92.34,20.655 C92.34,20.6850002 92.3699997,20.7 92.43,20.7 L92.79,20.88 L92.61,21.06 C92.5499997,21.1200003 92.52,21.1799997 92.52,21.24 C92.6400006,21.4800012 92.7,21.6899991 92.7,21.87 C92.7,22.0498599 92.7299527,22.1997644 92.7898591,22.3197179 C92.7227421,22.2582258 92.6045981,22.23 92.43,22.23 L92.61,22.59 L92.7,22.59 L92.79,22.5 C92.9100006,22.5 92.9100006,22.5599994 92.79,22.68 L92.79,22.86 C92.6099991,23.0400009 92.6099991,23.1899994 92.79,23.31 C92.7299997,23.31 92.6700003,23.3249999 92.61,23.355 C92.5499997,23.3850002 92.4600006,23.4 92.34,23.4 L92.61,23.58 L92.61,23.67 C92.61,23.7900006 92.5500006,23.9099994 92.43,24.03 C92.6700012,24.3300015 92.7600003,24.5399994 92.7,24.66 L92.52,24.48 C92.5800003,24.6000006 92.6249998,24.6749998 92.655,24.705 C92.6850002,24.7350001 92.7,24.8099994 92.7,24.93 L92.7,25.29 C92.5199991,25.5900015 92.5499988,25.7699997 92.79,25.83 C92.9100006,25.9500006 92.9400003,26.0399997 92.88,26.1 C92.8199997,26.1600003 92.8199997,26.2199997 92.88,26.28 C92.9400003,26.4000006 92.9550001,26.4749999 92.925,26.505 C92.8949999,26.5350001 92.9099997,26.6099994 92.97,26.73 L92.97,27.18 L93.15,27.81 L93.15,27.9 C93.0299994,28.0200006 93.0299994,28.1099997 93.15,28.17 C93.2700006,28.2300003 93.33,28.3199994 93.33,28.44 C93.33,28.6200009 93.4199991,28.7399997 93.6,28.8 C93.6600003,28.8600003 93.69,28.9499994 93.69,29.07 C93.6299997,29.1300003 93.6899991,29.2199994 93.87,29.34 L94.59,30.24 L95.04,30.42 L95.58,30.78 C95.7600009,30.9000006 95.9999985,30.96 96.3,30.96 C96.3600003,31.0200003 96.5399985,31.05 96.84,31.05 C97.0200009,31.1100003 97.1849993,31.1250001 97.335,31.095 C97.4850008,31.0649998 97.6499991,31.05 97.83,31.05 C97.9500006,31.1100003 98.0699994,31.1250001 98.19,31.095 C98.3100006,31.0649998 98.4299994,31.0799997 98.55,31.14 L99.27,31.14 C99.3900006,31.2000003 99.5099994,31.2150002 99.63,31.185 C99.7500006,31.1549998 99.8699994,31.14 99.99,31.14 L100.17,31.14 C100.410001,31.2600006 100.589999,31.2600006 100.71,31.14 L100.71,31.05 C100.890001,31.05 101.069999,31.0350001 101.25,31.005 C101.430001,30.9749998 101.579999,30.96 101.7,30.96 L102.87,30.78 C103.110001,30.78 103.469998,30.7200006 103.95,30.6 C104.070001,30.6 104.16,30.6299997 104.22,30.69 C104.28,30.7500003 104.369999,30.78 104.49,30.78 L104.04,31.32 C103.98,31.32 103.935,31.3499997 103.905,31.41 C103.875,31.4700003 103.800001,31.5 103.68,31.5 C103.379998,31.6800009 103.140001,31.77 102.96,31.77 C102.599998,31.8900006 102.360001,31.95 102.24,31.95 C101.999999,32.0700006 101.745001,32.1449998 101.475,32.175 C101.204999,32.2050001 100.950001,32.2499997 100.71,32.31 C100.589999,32.31 100.5,32.2950001 100.44,32.265 C100.38,32.2349999 100.290001,32.2499997 100.17,32.31 C100.049999,32.31 99.9300006,32.3249999 99.81,32.355 C99.6899994,32.3850001 99.5700006,32.4 99.45,32.4 C99.3299994,32.4 99.1950008,32.4149999 99.045,32.445 C98.8949993,32.4750001 98.7600006,32.49 98.64,32.49 C98.4599991,32.5500003 98.2650011,32.58 98.055,32.58 L96.75,32.58 C96.5699991,32.58 96.4050007,32.5949999 96.255,32.625 C96.1049992,32.6550001 95.9100012,32.6400003 95.67,32.58 L95.49,32.58 L95.4,32.67 C95.2799994,32.5499994 95.1600006,32.5199997 95.04,32.58 C94.9199994,32.6400003 94.7700009,32.6400003 94.59,32.58 L93.78,32.4 L93.69,32.4 C93.4499988,32.4 93.3000003,32.3100009 93.24,32.13 C93.1799997,32.1900003 93.1200003,32.22 93.06,32.22 L92.25,31.95 C92.3100003,31.95 92.2500009,31.8600009 92.07,31.68 C92.07,31.5599994 92.0100006,31.5 91.89,31.5 C91.7099991,31.5600003 91.62,31.5000009 91.62,31.32 C91.5599997,31.32 91.53,31.3349998 91.53,31.365 C91.53,31.3950001 91.5000003,31.41 91.44,31.41 L91.17,31.14 C91.0499994,31.0199994 90.9750002,30.9150005 90.945,30.825 C90.9149999,30.7349995 90.8400006,30.7199997 90.72,30.78 C90.72,30.6599994 90.6600006,30.6 90.54,30.6 C90.4199994,30.6 90.4199994,30.5400006 90.54,30.42 C90.54,30.2999994 90.4800006,30.24 90.36,30.24 L90.18,30.24 C90.1199997,30.1799997 90.09,30.1200003 90.09,30.06 L90.09,29.88 C90.0299997,29.6399988 89.9100009,29.4900003 89.73,29.43 C89.6699997,29.43 89.64,29.3700006 89.64,29.25 C89.64,29.1899997 89.6100003,29.1150004 89.55,29.025 C89.4899997,28.9349995 89.5199994,28.8300006 89.64,28.71 C89.64,28.6499997 89.6100003,28.62 89.55,28.62 L89.55,28.53 C89.4899997,28.5900003 89.3700009,28.62 89.19,28.62 C89.19,28.4999994 89.2199997,28.4100003 89.28,28.35 C89.0999991,28.1699991 88.9500006,28.0500003 88.83,27.99 L88.83,27.9 C88.9500006,27.7799994 88.9800003,27.6600006 88.92,27.54 C88.8599997,27.4199994 88.83,27.3000006 88.83,27.18 C88.83,27.0599994 88.8000003,26.9700003 88.74,26.91 C88.74,26.7899994 88.7699997,26.6700006 88.83,26.55 L88.47,26.82 L88.02,26.1 C88.1400006,25.9799994 88.1400006,25.8900003 88.02,25.83 C87.8999994,25.7699997 87.9299991,25.6800006 88.11,25.56 C88.0499997,25.56 88.02,25.5450001 88.02,25.515 C88.02,25.4849999 87.9900003,25.47 87.93,25.47 C87.8099994,25.47 87.75,25.3800009 87.75,25.2 C87.8100003,25.0799994 87.8250001,24.9900003 87.795,24.93 C87.7649999,24.8699997 87.75,24.8100003 87.75,24.75 L87.93,24.48 C87.8099994,24.4199997 87.7200003,24.39 87.66,24.39 C87.5999997,24.2099991 87.57,24.0000012 87.57,23.76 C87.57,23.5199988 87.5999997,23.3400006 87.66,23.22 C87.66,23.1599997 87.6000006,23.1449998 87.48,23.175 C87.3599994,23.2050001 87.3299997,23.1600006 87.39,23.04 L87.75,23.04 C87.75,22.9199994 87.7350002,22.8450001 87.705,22.815 C87.6749999,22.7849998 87.66,22.7400003 87.66,22.68 L87.57,22.68 C87.4499994,22.6199997 87.3000009,22.5000009 87.12,22.32 C87.1800003,22.2599997 87.2699994,22.23 87.39,22.23 C87.2699994,21.9299985 87.1200009,21.8399994 86.94,21.96 C86.7599991,21.96 86.67,22.1399982 86.67,22.5 C86.6099997,22.5600003 86.5500003,22.59 86.49,22.59 L86.4,22.68 C86.2199991,22.68 86.1150002,22.7549992 86.085,22.905 C86.0549999,23.0550007 85.9800006,23.1899994 85.86,23.31 L85.5,23.85 L85.41,23.76 L85.14,24.03 C85.0799997,24.1500006 85.05,24.2399997 85.05,24.3 C85.05,24.3600003 85.0200003,24.4199997 84.96,24.48 C84.8999997,24.6000006 84.8250005,24.6899997 84.735,24.75 C84.6449996,24.8100003 84.5400006,24.8999994 84.42,25.02 L84.24,25.38 L83.97,25.74 L83.52,26.28 L82.26,27.54 L82.35,27.63 L82.08,27.99 C82.0199997,28.1100006 81.9600003,28.1849998 81.9,28.215 C81.8399997,28.2450002 81.7500006,28.3199994 81.63,28.44 L81.54,28.53 C81.54,28.7100009 81.4950005,28.8449996 81.405,28.935 C81.3149996,29.0250005 81.2400003,29.1299994 81.18,29.25 C81.1199997,29.3700006 81.0450005,29.4599997 80.955,29.52 C80.8649995,29.5800003 80.7600006,29.6699994 80.64,29.79 L80.19,30.33 C80.0699994,30.7500021 79.8900012,31.0499991 79.65,31.23 C79.4099988,31.3500006 79.2600003,31.4699994 79.2,31.59 C79.1399997,31.7700009 79.0200009,31.9499991 78.84,32.13 C78.84,32.1900003 78.8250001,32.2349999 78.795,32.265 C78.7649998,32.2950001 78.75,32.3399997 78.75,32.4 C78.75,32.5200006 78.6600009,32.6099997 78.48,32.67 L78.3,32.94 C78.0599988,33.1800012 77.94,33.3599994 77.94,33.48 L77.94,33.57 L77.31,34.11 C77.31,34.1700003 77.2950002,34.2299997 77.265,34.29 C77.2349999,34.3500003 77.22,34.4099997 77.22,34.47 L77.04,34.65 L76.68,35.28 L76.32,35.64 C76.1999994,35.7600006 76.0950005,35.8799994 76.005,36 C75.9149996,36.1200006 75.7800009,36.2099997 75.6,36.27 C75.6,36.3300003 75.5700003,36.3899997 75.51,36.45 C75.4499997,36.5100003 75.42,36.5549998 75.42,36.585 C75.42,36.6150001 75.3600006,36.6599997 75.24,36.72 C75.1799997,36.7800003 75.1200003,36.81 75.06,36.81 L74.7,37.17 L74.52,37.53 C74.4599997,37.5900003 74.2800015,37.62 73.98,37.62 C73.8599994,37.8600012 73.7400006,37.9500003 73.62,37.89 C73.62,38.1900015 73.5300009,38.2800006 73.35,38.16 C73.2899997,38.16 73.2000006,38.2199994 73.08,38.34 C73.0199997,38.2799997 72.9600003,38.25 72.9,38.25 C72.9,38.3100003 72.8700003,38.3699997 72.81,38.43 C72.7499997,38.43 72.7050002,38.4150001 72.675,38.385 C72.6449999,38.3549999 72.6000003,38.34 72.54,38.34 L72.18,38.34 C72.1199997,38.34 72.09,38.3100003 72.09,38.25 C71.9699994,38.0699991 71.8200009,37.98 71.64,37.98 C71.4599991,37.98 71.37,38.0699991 71.37,38.25 C71.1299988,38.1299994 70.9050011,38.0250005 70.695,37.935 C70.484999,37.8449996 70.3500003,37.6500015 70.29,37.35 C70.2299997,37.4700006 70.0800012,37.53 69.84,37.53 C69.84,37.3499991 69.7200012,37.26 69.48,37.26 C69.0599979,37.1399994 68.9099994,36.9300015 69.03,36.63 C69.0900003,36.5099994 69.0750005,36.4200003 68.985,36.36 C68.8949996,36.2999997 68.8799997,36.2100006 68.94,36.09 L68.67,36.09 C68.6099997,35.9699994 68.58,35.7900012 68.58,35.55 C68.58,35.4899997 68.5200006,35.46 68.4,35.46 L68.58,35.28 L68.49,35.19 C68.2499988,35.0699994 68.1000003,35.01 68.04,35.01 L68.22,34.83 L68.04,34.65 C68.1600006,34.4099988 68.0100021,34.29 67.59,34.29 C67.4699994,34.1699994 67.41,34.0500006 67.41,33.93 C67.41,33.8099994 67.3200009,33.7200003 67.14,33.66 C67.3200009,33.5399994 67.3800003,33.3900009 67.32,33.21 L67.32,32.94 C67.1999994,32.6999988 67.14,32.5200006 67.14,32.4 C67.14,32.3399997 67.1100003,32.31 67.05,32.31 C66.8699991,32.0099985 66.8099997,31.8000006 66.87,31.68 L66.69,31.5 C66.7500003,31.5 66.7949999,31.4850001 66.825,31.455 C66.8550001,31.4249998 66.8999997,31.41 66.96,31.41 L67.14,31.23 L66.78,30.78 C66.9000006,30.78 67.0199994,30.7200006 67.14,30.6 L66.87,30.6 C66.87,30.4799994 66.8999997,30.3900003 66.96,30.33 C67.0200003,30.2699997 66.9900006,30.24 66.87,30.24 L66.96,30.15 C66.96,30.0899997 66.9300003,30.06 66.87,30.06 L66.96,30.06 C67.0800006,29.9399994 67.14,29.8200006 67.14,29.7 C67.14,29.4599988 67.0200012,29.4599988 66.78,29.7 C66.78,29.5799994 66.7650001,29.4600006 66.735,29.34 C66.7049999,29.2199994 66.69,29.1000006 66.69,28.98 L66.78,28.98 C66.9000006,28.6199982 67.0199994,28.3800006 67.14,28.26 L67.32,28.08 L67.14,27.72 L66.78,27.99 C66.8400003,27.8699994 66.87,27.7800003 66.87,27.72 C66.87,27.6599997 66.8999997,27.6000003 66.96,27.54 L67.14,27.36 C67.14,27.2999997 67.1100003,27.27 67.05,27.27 L67.14,27.18 L66.96,27.27 C66.8999997,27.2099997 66.87,27.1500003 66.87,27.09 L66.87,27 C66.87,26.9399997 66.8100006,26.91 66.69,26.91 L66.87,26.55 L67.05,26.64 L67.32,26.1 C67.1399991,26.0399997 67.05,26.0999991 67.05,26.28 L66.78,26.01 C66.6599994,25.8899994 66.6,25.8000003 66.6,25.74 C66.6,25.6799997 66.6149999,25.6350001 66.645,25.605 C66.6750002,25.5749999 66.69,25.5300003 66.69,25.47 C66.8700009,25.47 66.9899997,25.4400003 67.05,25.38 C66.9899997,25.3199997 66.96,25.2600003 66.96,25.2 L67.14,25.29 L67.14,24.48 C67.14,24.4199997 67.1699997,24.39 67.23,24.39 C67.2900003,24.39 67.3499997,24.4199997 67.41,24.48 C67.41,24.4199997 67.4249999,24.39 67.455,24.39 C67.4850002,24.39 67.5,24.3600003 67.5,24.3 C67.5,24.2399997 67.4700003,24.21 67.41,24.21 L68.13,23.76 C67.9499991,23.6999997 67.9199994,23.6100006 68.04,23.49 C68.1000003,23.49 68.13,23.4600003 68.13,23.4 C68.13,23.2799994 68.0700006,23.22 67.95,23.22 C67.95,23.1599997 67.9649998,23.1150001 67.995,23.085 C68.0250002,23.0549998 68.04,23.0100003 68.04,22.95 L67.86,22.95 L67.86,22.59 C68.0400009,22.59 68.1599997,22.5600003 68.22,22.5 C68.2800003,22.5 68.3399997,22.4700003 68.4,22.41 C68.4600003,22.41 68.5499994,22.3500006 68.67,22.23 C68.6099997,22.23 68.58,22.2000003 68.58,22.14 L68.58,21.96 C68.7000006,21.8399994 68.7899997,21.78 68.85,21.78 C68.9100003,21.78 68.9699997,21.7200006 69.03,21.6 C69.0900003,21.6 69.12,21.5100009 69.12,21.33 L69.3,21.33 C69.3,21.3900003 69.3599994,21.3600006 69.48,21.24 C69.48,21.0599991 69.5999988,20.97 69.84,20.97 C69.9600006,20.9099997 70.0499997,20.88 70.11,20.88 C70.1700003,20.88 70.2599994,20.8200006 70.38,20.7 L70.56,20.7 C70.6200003,20.7 70.6799997,20.7149998 70.74,20.745 C70.8000003,20.7750002 70.8599997,20.79 70.92,20.79 L70.92,20.88 C71.1000009,20.8199997 71.2799991,20.8799991 71.46,21.06 L71.46,20.88 C71.6400009,20.9400003 71.6400009,21.0599991 71.46,21.24 C71.7000012,21.3000003 71.9099991,21.3000003 72.09,21.24 C72.2700009,21.1799997 72.4199994,21.1200003 72.54,21.06 L72.54,21.24 C72.6000003,21.3000003 72.6749995,21.33 72.765,21.33 C72.8550005,21.33 72.9,21.3899994 72.9,21.51 L73.08,21.51 C73.1400003,21.51 73.17,21.5699994 73.17,21.69 L73.44,21.69 L73.44,21.78 C73.3799997,21.9000006 73.4399991,22.0199994 73.62,22.14 L73.71,22.23 L73.8,22.05 L73.89,22.05 C73.9500003,22.05 73.98,22.0350001 73.98,22.005 C73.98,21.9749998 74.0099997,21.96 74.07,21.96 C74.07,22.0800006 74.0550002,22.1699997 74.025,22.23 L73.89,22.5 C74.0100006,22.6200006 74.07,22.7699991 74.07,22.95 C74.07,23.0100003 74.0100006,23.04 73.89,23.04 L74.07,23.22 L73.89,23.58 C73.8299997,23.5199997 73.7400006,23.49 73.62,23.49 L73.71,23.76 L73.8,23.85 C73.8,24.1499985 74.0099937,24.3599952 74.4299874,24.4799964 L74.426088,24.4800054 Z M67.23,25.83 L66.96,25.83 L66.78,25.92 L66.96,26.01 L67.14,26.01 C67.14,25.9499997 67.1549998,25.92 67.185,25.92 C67.2150002,25.92 67.23,25.8900003 67.23,25.83 Z M89.91,16.02 L89.91,16.11 L90,16.38 L90.18,16.11 C90.0599994,16.11 89.9700003,16.0800003 89.91,16.02 Z M69.66,36.81 L69.39,37.08 C69.2699994,36.8999991 69.3599985,36.81 69.66,36.81 Z M111.870068,1.18473689 C111.871675,1.3565657 111.901652,1.4716523 111.96,1.53 L111.6,1.53 C111.6,1.5900003 111.585,1.63499985 111.555,1.665 C111.525,1.69500015 111.51,1.7399997 111.51,1.8 C111.57,1.7399997 111.659999,1.71 111.78,1.71 C111.900001,1.71 111.99,1.7699994 112.05,1.89 L111.87,1.89 C111.87,1.9500003 111.885,2.02499955 111.915,2.115 C111.945,2.20500045 111.900001,2.25 111.78,2.25 C111.78,2.3700006 111.795,2.44499985 111.825,2.475 C111.855,2.50500015 111.87,2.5499997 111.87,2.61 L112.05,2.7 C112.11,2.8200006 112.125,2.89499985 112.095,2.925 C112.065,2.95500015 112.05,2.9999997 112.05,3.06 L111.6,3.69 L111.33,4.05 C111.27,4.1700006 111.24,4.2599997 111.24,4.32 C111.24,4.3800003 111.21,4.4399997 111.15,4.5 L110.61,5.13 C110.61,5.1900003 110.595,5.23499985 110.565,5.265 C110.535,5.29500015 110.52,5.3399997 110.52,5.4 L110.34,6.03 C110.219999,6.03 110.16,6.0899994 110.16,6.21 C110.16,6.3300006 110.279999,6.4499994 110.52,6.57 C110.58,6.6300003 110.759998,6.66 111.06,6.66 L111.15,6.57 L111.15,6.48 L114.57,6.12 C114.690001,6.12 114.78,6.1499997 114.84,6.21 C114.960001,6.0299991 115.05,5.9699997 115.11,6.03 L115.2,6.12 C115.320001,5.9999994 115.454999,5.9699997 115.605,6.03 C115.755001,6.0900003 115.889999,6.12 116.01,6.12 C116.130001,6.12 116.249999,6.13499985 116.37,6.165 C116.490001,6.19500015 116.609999,6.21 116.73,6.21 C117.090002,6.3300006 117.3,6.4799991 117.36,6.66 C117.480001,6.66 117.57,6.6899997 117.63,6.75 C117.69,6.75 117.72,6.8099994 117.72,6.93 C117.840001,7.0500006 117.93,7.12499985 117.99,7.155 C118.05,7.18500015 118.11,7.2599994 118.17,7.38 C118.290001,7.5600009 118.365,7.75499895 118.395,7.965 C118.425,8.17500105 118.47,8.3699991 118.53,8.55 L118.53,8.64 L118.26,9.54 C118.2,9.6600006 118.125,9.73499985 118.035,9.765 C117.945,9.79500015 117.87,9.8699994 117.81,9.99 L117.63,10.17 L117.09,10.53 C116.969999,10.5900003 116.820001,10.6349998 116.64,10.665 C116.459999,10.6950002 116.280001,10.7699994 116.1,10.89 L115.65,10.89 C115.289998,11.0100006 115.020001,11.07 114.84,11.07 C114.78,11.07 114.630001,11.0100006 114.39,10.89 C114.269999,10.7099991 114.299999,10.5300009 114.48,10.35 C114.600001,10.2299994 114.719999,10.1400003 114.84,10.08 C114.960001,10.0199997 115.079999,9.9300006 115.2,9.81 C115.320001,9.6899994 115.454999,9.6000003 115.605,9.54 C115.755001,9.4799997 115.83,9.3600009 115.83,9.18 C115.83,8.9999991 115.770001,8.8500006 115.65,8.73 C115.289998,8.3699982 114.930002,8.2199997 114.57,8.28 L114.12,8.28 C113.999999,8.3400003 113.760002,8.37 113.4,8.37 C113.219999,8.37 113.055001,8.38499985 112.905,8.415 C112.754999,8.44500015 112.590001,8.4899997 112.41,8.55 L111.915,8.55 C111.825,8.55 111.720001,8.6099994 111.6,8.73 C111.359999,8.6099994 111.150001,8.59499955 110.97,8.685 C110.789999,8.77500045 110.610001,8.82 110.43,8.82 C110.309999,8.82 110.235,8.83499985 110.205,8.865 C110.175,8.89500015 110.13,8.91 110.07,8.91 C109.829999,8.8499997 109.650001,8.9399988 109.53,9.18 C109.409999,9.18 109.35,9.2999988 109.35,9.54 C109.35,9.7200009 109.32,9.8399997 109.26,9.9 C109.079999,9.9 109.02,10.0199988 109.08,10.26 L109.08,10.53 L108.81,10.35 C108.81,10.4700006 108.825,10.5449999 108.855,10.575 C108.885,10.6050001 108.9,10.6499997 108.9,10.71 L108.72,11.07 L108.9,11.43 L108.81,11.43 C108.81,11.3699997 108.795,11.34 108.765,11.34 C108.735,11.34 108.72,11.3100003 108.72,11.25 L108.54,11.43 L108.72,11.61 C108.78,12.0300021 108.630002,12.3899985 108.27,12.69 L108.54,13.32 C108.54,13.4400006 108.480001,13.5 108.36,13.5 L108.18,13.68 C108.18,13.7400003 108.15,13.77 108.09,13.77 C107.969999,13.8900006 107.94,14.0399991 108,14.22 C107.94,14.22 107.91,14.2349999 107.91,14.265 C107.91,14.2950001 107.88,14.31 107.82,14.31 L108.09,14.76 C107.909999,15.0600015 107.85,15.4199979 107.91,15.84 C107.85,15.84 107.805,15.8549999 107.775,15.885 C107.745002,15.9149985 107.700005,15.9299983 107.64001,15.93 C107.882304,16.0515424 107.969224,16.11 107.91,16.11 L107.73,16.29 C107.73,16.3500003 107.715,16.3949998 107.685,16.425 C107.655,16.4550001 107.64,16.4999997 107.64,16.56 C107.58,16.6200003 107.55,16.7099994 107.55,16.83 L108,17.19 L107.91,17.28 L107.46,17.28 C107.4,17.3400003 107.37,17.3999997 107.37,17.46 L107.46,17.55 L107.64,17.64 C107.58,17.7000003 107.52,17.73 107.46,17.73 L107.19,18 C107.19,18.0600003 107.22,18.1049999 107.28,18.135 C107.34,18.1650001 107.310001,18.2399994 107.19,18.36 C107.25,18.4200003 107.28,18.4799997 107.28,18.54 C107.28,18.6600006 107.31,18.7499997 107.37,18.81 C107.249999,18.9300006 107.19,19.0049998 107.19,19.035 C107.19,19.0650001 107.22,19.2299985 107.28,19.53 C107.22,19.53 107.175,19.5449999 107.145,19.575 C107.115,19.6050001 107.07,19.62 107.01,19.62 C107.01,19.6800003 107.04,19.7399997 107.1,19.8 C106.859999,19.8600003 106.799999,20.0099988 106.92,20.25 L106.92,20.52 C106.92,20.7600012 106.89,20.9399994 106.83,21.06 L106.83,21.33 C107.070001,21.5700012 107.070001,21.8099988 106.83,22.05 C106.77,22.05 106.74,22.1399991 106.74,22.32 L106.74,22.59 C106.920001,22.6500003 106.950001,22.7399994 106.83,22.86 L106.83,23.4 L106.74,23.4 C106.8,23.7000015 106.785,23.9399991 106.695,24.12 C106.605,24.3000009 106.500001,24.4799991 106.38,24.66 C106.38,24.7800006 106.365,24.8549999 106.335,24.885 C106.305,24.9150001 106.29,24.9599997 106.29,25.02 L106.29,25.2 C106.169999,25.3800009 106.259998,25.47 106.56,25.47 L106.29,25.65 L106.56,25.92 C106.56,26.0400006 106.545,26.1299997 106.515,26.19 C106.485,26.2500003 106.47,26.3099997 106.47,26.37 L106.47,26.91 C106.47,27.0900009 106.410001,27.2699991 106.29,27.45 C106.410001,27.45 106.47,27.4350002 106.47,27.405 C106.47,27.3749998 106.5,27.36 106.56,27.36 L106.56,27.81 C106.56,27.9900009 106.500001,28.08 106.38,28.08 C106.259999,28.08 106.2,28.1699991 106.2,28.35 C106.2,28.6500015 106.23,28.8899991 106.29,29.07 C106.29,29.2500009 106.379999,29.3100003 106.56,29.25 C106.62,29.25 106.68,29.2799997 106.74,29.34 C106.619999,29.34 106.56,29.3699997 106.56,29.43 C106.56,29.4900003 106.545,29.5349998 106.515,29.565 C106.485,29.5950001 106.47,29.6399997 106.47,29.7 C106.47,29.8800009 106.485,30.074999 106.515,30.285 C106.545,30.4950011 106.56,30.6899991 106.56,30.87 L106.56,30.96 C106.56,31.0200003 106.545,31.0649999 106.515,31.095 C106.485,31.1250001 106.47,31.1699997 106.47,31.23 L106.65,31.41 C106.529999,31.5300006 106.47,31.6199997 106.47,31.68 L106.47,32.13 C106.41,32.1900003 106.38,32.3099991 106.38,32.49 C106.500001,32.7300012 106.53,32.9099994 106.47,33.03 C106.53,33.03 106.56,33.0599997 106.56,33.12 C106.56,33.1800003 106.575,33.21 106.605,33.21 C106.635,33.21 106.65,33.2399997 106.65,33.3 C106.65,33.4200006 106.68,33.5549993 106.74,33.705 C106.8,33.8550007 106.86,33.9899994 106.92,34.11 C107.100001,34.3500012 107.16,34.5899988 107.1,34.83 L107.37,35.01 L107.19,35.1 L107.64,36.45 C107.7,36.5100003 107.789999,36.54 107.91,36.54 L107.64,36.72 L107.73,36.72 C107.850001,36.7800003 107.955,36.8549995 108.045,36.945 C108.135,37.0350005 108.239999,37.1099997 108.36,37.17 C108.42,37.2300003 108.45,37.2899997 108.45,37.35 C108.45,37.4100003 108.48,37.4999994 108.54,37.62 C108.660001,37.62 108.72,37.6499997 108.72,37.71 L108.72,37.8 L109.35,37.98 C109.470001,37.98 109.545,37.9949998 109.575,38.025 C109.605,38.0550002 109.65,38.07 109.71,38.07 C110.070002,38.07 110.28,38.0400003 110.34,37.98 C110.4,37.9199997 110.46,37.9049998 110.52,37.935 C110.58,37.9650002 110.64,37.9500003 110.7,37.89 C110.820001,37.8299997 110.954999,37.7550005 111.105,37.665 C111.255001,37.5749995 111.389999,37.5000003 111.51,37.44 C111.690001,37.3799997 111.839999,37.2900006 111.96,37.17 L112.32,36.81 C112.560001,36.5699988 112.799999,36.3600009 113.04,36.18 C113.280001,35.9999991 113.549999,35.7900012 113.85,35.55 L114.39,34.92 C114.510001,34.7399991 114.659999,34.5900006 114.84,34.47 C115.080001,34.3499994 115.259999,34.2300006 115.38,34.11 L115.74,33.75 L117.36,31.95 L117.81,31.32 C117.930001,31.2599997 118.005,31.2000003 118.035,31.14 C118.065,31.0799997 118.11,31.0200003 118.17,30.96 L118.89,30.15 C119.070001,30.0299994 119.279999,29.7900018 119.52,29.43 C119.640001,29.3099994 119.73,29.25 119.79,29.25 C119.970001,29.0699991 120.06,29.1899979 120.06,29.61 C120.06,29.8500012 119.940001,30.0899988 119.7,30.33 C119.64,30.5100009 119.490001,30.7799982 119.25,31.14 L118.62,31.86 C118.499999,31.9800006 118.41,32.0999994 118.35,32.22 C118.29,32.3400006 118.200001,32.4599994 118.08,32.58 C117.779999,33.0600024 117.450002,33.4799982 117.09,33.84 L116.55,34.47 L116.19,34.74 L115.38,35.82 L114.84,36.36 C114.479998,36.6000012 114.240001,36.8099991 114.12,36.99 L113.58,37.71 L112.86,38.43 L112.86,38.52 C112.619999,38.52 112.440001,38.6699985 112.32,38.97 L112.23,39.06 L112.14,39.06 L111.69,39.42 L111.24,39.69 C111.18,39.7500003 111.090001,39.78 110.97,39.78 C110.849999,39.8400003 110.745,39.8999997 110.655,39.96 C110.565,40.0200003 110.460001,40.0799997 110.34,40.14 C110.28,40.0799997 110.22,40.0799997 110.16,40.14 C109.919999,40.14 109.8,40.1699997 109.8,40.23 C109.679999,40.1099994 109.59,40.0799997 109.53,40.14 C109.47,40.2000003 109.41,40.23 109.35,40.23 L109.26,40.23 C109.139999,40.4100009 108.930002,40.4400006 108.63,40.32 L108.09,40.14 C108.03,40.14 107.985,40.1549998 107.955,40.185 C107.925,40.2150002 107.88,40.23 107.82,40.23 C107.82,40.1699997 107.730001,40.0800006 107.55,39.96 C107.429999,39.8999997 107.34,39.8250004 107.28,39.735 C107.22,39.6449996 107.130001,39.5400006 107.01,39.42 C106.889999,39.5400006 106.740001,39.4800012 106.56,39.24 C106.319999,39.1199994 106.140001,39.0000006 106.02,38.88 L105.93,38.79 C105.93,38.5499988 105.855001,38.3700006 105.705,38.25 C105.554999,38.1299994 105.420001,38.0100006 105.3,37.89 C105.179999,37.7699994 105.105,37.6650005 105.075,37.575 C105.045,37.4849995 104.970001,37.4100003 104.85,37.35 C104.85,37.1699991 104.760001,37.0200006 104.58,36.9 C104.399999,36.7799994 104.369999,36.6000012 104.49,36.36 C104.369999,36.2399994 104.31,36.1200006 104.31,36 C104.31,35.8799994 104.250001,35.7600006 104.13,35.64 C104.07,35.64 104.04,35.5800006 104.04,35.46 C104.160001,35.2799991 104.160001,35.1000009 104.04,34.92 C104.1,34.8599997 104.16,34.83 104.22,34.83 C104.099999,34.7699997 103.950001,34.74 103.77,34.74 L103.77,34.38 C103.77,34.2599994 103.710001,34.1400006 103.59,34.02 C103.53,33.9599997 103.53,33.9000003 103.59,33.84 C103.65,33.7799997 103.68,33.6900006 103.68,33.57 L103.32,33.57 L103.59,33.3 L103.32,33.03 L103.41,33.03 C103.41,32.9099994 103.44,32.8200003 103.5,32.76 C103.5,32.6399994 103.47,32.5500003 103.41,32.49 C103.229999,32.49 103.020001,32.4000009 102.78,32.22 L102.96,32.22 L103.05,32.13 C103.11,31.8899988 103.080001,31.6800009 102.96,31.5 C102.96,31.4399997 102.975,31.3950001 103.005,31.365 C103.035,31.3349998 103.05,31.2900003 103.05,31.23 C103.05,30.9899988 102.930001,30.87 102.69,30.87 L102.51,30.69 C102.630001,30.69 102.72,30.7199997 102.78,30.78 L102.96,30.06 L102.78,30.06 L102.78,30.33 L102.51,30.6 L102.51,30.33 L102.69,30.15 L102.6,30.06 C102.6,30.1200003 102.585,30.15 102.555,30.15 C102.525,30.15 102.51,30.1799997 102.51,30.24 C102.389999,30.1199994 102.36,30.06 102.42,30.06 C102.48,29.9999997 102.51,29.9100006 102.51,29.79 C102.51,29.7299997 102.495,29.6850002 102.465,29.655 C102.435,29.6249998 102.42,29.5800003 102.42,29.52 L102.33,29.52 C102.33,29.3999994 102.375,29.34 102.465,29.34 C102.555,29.34 102.540001,29.2800006 102.42,29.16 C102.42,29.0999997 102.360001,29.07 102.24,29.07 C102.24,28.8899991 102.359999,28.7400006 102.6,28.62 L102.42,28.62 L102.33,28.53 C102.33,28.4699997 102.315,28.4250001 102.285,28.395 C102.255,28.3649998 102.24,28.2900006 102.24,28.17 L102.24,27.9 C102.3,27.7199991 102.240001,27.63 102.06,27.63 C102.12,27.5699997 102.15,27.4500009 102.15,27.27 C102.15,27.1499994 102.090001,27.0300006 101.97,26.91 C102.090001,26.7899994 102.090001,26.5800015 101.97,26.28 C102.03,26.28 102.119999,26.2200006 102.24,26.1 L102.24,26.01 L102.06,26.1 C101.819999,25.9799994 101.789999,25.8300009 101.97,25.65 C102.090001,25.5299994 102.15,25.3800009 102.15,25.2 L101.88,24.66 C101.94,24.5999997 102,24.57 102.06,24.57 C102,24.5099997 101.97,24.4200006 101.97,24.3 C102.03,24.3 102.06,24.2700003 102.06,24.21 C101.939999,24.1499997 101.88,24.0450007 101.88,23.895 C101.88,23.7449992 101.91,23.6100006 101.97,23.49 L101.88,23.4 L101.88,22.77 C101.88,22.5899991 101.91,22.5 101.97,22.5 L102.06,22.32 C102,22.32 101.955,22.3050002 101.925,22.275 C101.895,22.2449998 101.85,22.23 101.79,22.23 C101.79,22.3500006 101.730001,22.41 101.61,22.41 L101.52,22.32 C101.760001,22.1399991 101.820001,21.9000015 101.7,21.6 C101.64,21.4799994 101.699999,21.3900003 101.88,21.33 L102.24,21.06 C102.360001,20.9399994 102.330001,20.8200006 102.15,20.7 L102.15,20.34 C101.789998,20.2199994 101.699999,19.9800018 101.88,19.62 L101.52,19.35 C101.760001,19.2899997 101.91,19.1400012 101.97,18.9 C102.03,18.6599988 102.149999,18.4500009 102.33,18.27 C102.27,18.27 102.24,18.2849998 102.24,18.315 C102.24,18.3450001 102.21,18.36 102.15,18.36 L101.97,18.36 L101.97,18.09 C101.97,18.0299997 102.029999,17.9400006 102.15,17.82 L102.33,17.91 C102.33,17.7899994 102.315,17.7150002 102.285,17.685 C102.255,17.6549999 102.24,17.6100003 102.24,17.55 C102.24,17.4299994 102.27,17.3400003 102.33,17.28 C102.33,17.4000006 102.345,17.4749998 102.375,17.505 C102.405,17.5350001 102.42,17.5799997 102.42,17.64 C102.48,17.64 102.51,17.6250001 102.51,17.595 C102.51,17.5649998 102.54,17.55 102.6,17.55 L102.24,16.83 C102.360001,16.7099994 102.330001,16.5600009 102.15,16.38 C102.029999,16.1999991 102.059999,16.0800003 102.24,16.02 C102.24,15.9599997 102.255,15.93 102.285,15.93 C102.315,15.93 102.33,15.9000003 102.33,15.84 L102.33,15.75 C102.450001,15.6299994 102.51,15.5400003 102.51,15.48 C102.45,15.48 102.405,15.4650002 102.375,15.435 C102.345,15.4049998 102.3,15.39 102.24,15.39 L102.69,14.85 L102.42,14.85 C102.42,14.6699991 102.45,14.5500003 102.51,14.49 C102.51,14.2499988 102.450001,14.1000003 102.33,14.04 C102.33,13.9799997 102.3,13.9200003 102.24,13.86 L102.87,13.59 C102.990001,13.4099991 102.930001,13.2600006 102.69,13.14 C102.810001,12.7799982 102.87,12.5100009 102.87,12.33 L102.96,12.24 C103.140001,12.0599991 103.170001,11.8800009 103.05,11.7 C102.869999,11.5799994 102.839999,11.3700015 102.96,11.07 L102.96,10.89 L103.23,10.62 C103.109999,10.4399991 102.990001,10.3649998 102.87,10.395 C102.749999,10.4250001 102.630001,10.44 102.51,10.44 L101.7,10.44 C101.64,10.44 101.58,10.4699997 101.52,10.53 C101.219999,10.7100009 100.890002,10.8 100.53,10.8 L100.35,10.8 C100.229999,10.8 100.095001,10.8149998 99.945,10.845 C99.7949992,10.8750001 99.6300009,10.89 99.45,10.89 L98.46,11.16 C98.3399994,11.16 98.1600012,11.2199994 97.92,11.34 C97.8599997,11.4000003 97.6500018,11.43 97.29,11.43 L96.39,11.61 C96.2099991,11.6700003 96.0450007,11.6700003 95.895,11.61 C95.7449993,11.5499997 95.6100006,11.5799994 95.49,11.7 C95.3699994,11.7600003 95.2200009,11.79 95.04,11.79 C94.8599991,11.79 94.7100006,11.8499994 94.59,11.97 C94.5299997,12.0300003 94.4100009,12.06 94.23,12.06 C94.0499991,12.06 93.855001,12.0749998 93.645,12.105 C93.434999,12.1350002 93.2400009,12.15 93.06,12.15 C92.8199988,12.15 92.7,12.0300012 92.7,11.79 C92.7,11.6699994 92.7599994,11.61 92.88,11.61 C93.0000006,11.4899994 93.2399982,11.3700006 93.6,11.25 C93.6600003,11.1899997 93.8099988,11.16 94.05,11.16 C94.2300009,11.16 94.3499997,11.1300003 94.41,11.07 L94.59,11.07 C94.7100006,11.07 94.7999997,11.0400003 94.86,10.98 C94.9200003,10.8599994 94.9949995,10.8149998 95.085,10.845 C95.1750004,10.8750001 95.2799994,10.89 95.4,10.89 L95.4,10.98 L95.94,10.62 C96.1200009,10.4999994 96.3299988,10.44 96.57,10.44 C96.7500009,10.44 96.9299991,10.4100003 97.11,10.35 C97.2900009,10.2899997 97.4399994,10.2300003 97.56,10.17 C97.6800006,10.17 97.7549998,10.1550001 97.785,10.125 C97.8150002,10.0949999 97.8899994,10.08 98.01,10.08 C98.1300006,10.08 98.2499994,10.0500003 98.37,9.99 C98.5500009,9.99 98.8199982,9.9300006 99.18,9.81 L99.99,9.54 C100.230001,9.4199994 100.469999,9.36 100.71,9.36 L100.98,9.36 C101.220001,9.2399994 101.579998,9.1200006 102.06,9 L102.78,8.73 C102.960001,8.73 103.169999,8.6700006 103.41,8.55 C103.47,8.55 103.559999,8.4900006 103.68,8.37 C103.74,8.3099997 103.8,8.28 103.86,8.28 C103.980001,8.1599994 104.04,8.0700003 104.04,8.01 C104.1,7.9499997 104.16,7.92 104.22,7.92 L103.95,7.74 C104.070001,7.6799997 104.16,7.65 104.22,7.65 C104.099999,7.3499985 104.159999,7.1700003 104.4,7.11 L104.04,6.93 C104.04,6.8099994 104.055,6.73500015 104.085,6.705 C104.115,6.67499985 104.13,6.6000006 104.13,6.48 L104.31,6.48 C104.37,6.48 104.4,6.4500003 104.4,6.39 C104.4,6.2099991 104.37,6.0900003 104.31,6.03 C104.189999,5.8499991 104.16,5.7300003 104.22,5.67 C104.340001,5.67 104.43,5.6400003 104.49,5.58 L104.49,5.04 C104.610001,5.04 104.715,5.05499985 104.805,5.085 C104.895,5.11500015 104.999999,5.0700006 105.12,4.95 L104.94,4.77 L105.12,4.41 L105.57,3.78 L105.84,3.33 C105.84,3.2099994 105.87,3.15 105.93,3.15 C106.050001,2.9099988 106.08,2.7300006 106.02,2.61 L106.47,2.34 L106.2,2.16 C106.26,2.0999997 106.32,2.07 106.38,2.07 C106.680002,1.9499994 106.86,1.8300006 106.92,1.71 C106.92,1.6499997 106.965,1.5900003 107.055,1.53 C107.145,1.4699997 107.249999,1.4999994 107.37,1.62 L107.46,1.62 C107.580001,1.4999994 107.64,1.33500105 107.64,1.125 C107.64,0.91499895 107.789998,0.8399997 108.09,0.9 L108.09,0.54 C108.15,0.54 108.299999,0.4800006 108.54,0.36 L108.63,0.36 C108.750001,0.2399994 108.989998,0.2099997 109.35,0.27 L109.08,0.45 C109.320001,0.45 109.589999,0.3000015 109.89,-7.10542736e-15 C110.010001,0.0600003 110.085,0.1199997 110.115,0.18 C110.145,0.2400003 110.19,0.2999997 110.25,0.36 L110.52,0.54 L110.7,0.72 C110.76,0.72 110.79,0.7499997 110.79,0.81 C110.970001,0.81 111.06,0.9299988 111.06,1.17 C111.06,1.4100012 111.149999,1.53 111.33,1.53 C111.450001,1.4699997 111.555,1.44 111.645,1.44 C111.734978,1.44 111.809962,1.350046 111.869955,1.17013529 L111.870068,1.18473689 Z M103.23,32.94 L103.32,33.03 L103.14,33.03 L103.23,32.94 Z M128.25,37.8 C128.069999,37.8600003 127.905001,37.9049998 127.755,37.935 C127.604999,37.9650002 127.440001,37.98 127.26,37.98 L126.54,37.98 L126,38.25 L126,38.16 L125.64,38.16 C125.519999,38.2200003 125.340001,38.1900006 125.1,38.07 L124.92,38.07 C124.679999,38.07 124.500001,38.0400003 124.38,37.98 C124.259999,37.8599994 124.080001,37.8 123.84,37.8 C123.719999,37.7399997 123.570001,37.71 123.39,37.71 L123.12,37.71 C123.12,37.5299991 123.030001,37.44 122.85,37.44 C122.729999,37.5000003 122.64,37.4850004 122.58,37.395 C122.52,37.3049995 122.430001,37.2300003 122.31,37.17 C122.430001,37.0499994 122.370001,36.9300006 122.13,36.81 L121.59,36.54 L121.23,36.27 L121.14,36.27 C121.08,36.27 121.035,36.2849998 121.005,36.315 C120.975,36.3450001 120.93,36.36 120.87,36.36 C120.87,36.2399994 120.885,36.1350004 120.915,36.045 C120.945,35.9549995 120.96,35.8500006 120.96,35.73 L120.87,35.64 C120.749999,35.5199994 120.630001,35.4450001 120.51,35.415 C120.389999,35.3849998 120.270001,35.3100006 120.15,35.19 C120.21,35.1299997 120.24,35.0100009 120.24,34.83 L119.7,34.65 C119.880001,34.4699991 119.850001,34.2600012 119.61,34.02 C119.55,33.9599997 119.52,33.8700006 119.52,33.75 L119.34,33.21 L119.25,33.21 L119.43,32.94 C119.37,32.94 119.31,32.9100003 119.25,32.85 C119.31,32.7899997 119.34,32.7300003 119.34,32.67 L119.16,32.67 C119.16,32.6099997 119.19,32.5500003 119.25,32.49 C119.370001,32.3099991 119.280001,32.1600006 118.98,32.04 L118.8,31.68 C118.8,31.6199997 118.77,31.5600003 118.71,31.5 C118.77,31.5 118.815,31.4850001 118.845,31.455 C118.875,31.4249998 118.92,31.41 118.98,31.41 L118.71,31.05 L119.07,31.05 C119.13,30.8699991 119.070001,30.7500003 118.89,30.69 L118.71,30.6 L118.8,30.51 C119.040001,30.51 119.16,30.3600015 119.16,30.06 C119.039999,29.7599985 119.099999,29.5500006 119.34,29.43 C119.099999,29.1899988 119.099999,29.0100006 119.34,28.89 C119.34,28.8299997 119.31,28.7700003 119.25,28.71 L119.16,28.62 C119.22,28.4999994 119.28,28.3950004 119.34,28.305 C119.4,28.2149995 119.46,28.1100006 119.52,27.99 C119.52,27.9299997 119.49,27.9 119.43,27.9 C119.309999,27.7799994 119.309999,27.72 119.43,27.72 C119.550001,27.6599997 119.550001,27.5700006 119.43,27.45 C119.309999,27.3299994 119.309999,27.2400003 119.43,27.18 C119.49,27.18 119.52,27.0600012 119.52,26.82 C119.760001,26.82 119.91,26.7900003 119.97,26.73 C119.91,26.6699997 119.88,26.5500009 119.88,26.37 C119.88,26.3099997 119.820001,26.2200006 119.7,26.1 L120.15,25.74 C120.21,25.74 120.24,25.6500009 120.24,25.47 C120.18,25.47 120.15,25.4100006 120.15,25.29 C120.15,25.2299997 120.12,25.2 120.06,25.2 C120.180001,24.9599988 120.299999,24.8100003 120.42,24.75 C120.540001,24.6899997 120.689999,24.66 120.87,24.66 L121.05,23.94 L121.41,23.76 C121.530001,23.6999997 121.62,23.5800009 121.68,23.4 L122.13,23.4 L121.95,23.13 L122.13,23.13 L122.13,22.86 C122.250001,22.86 122.31,22.8899997 122.31,22.95 L122.49,23.13 L122.58,23.04 L122.58,22.68 L122.94,22.41 C123.180001,22.5900009 123.419999,22.5900009 123.66,22.41 L124.11,22.41 C124.11,22.3499997 124.095,22.3050002 124.065,22.275 C124.035,22.2449998 124.02,22.2000003 124.02,22.14 C124.08,22.0799997 124.14,22.05 124.2,22.05 C124.26,22.05 124.409999,21.9900006 124.65,21.87 C124.71,21.87 124.74,21.8550001 124.74,21.825 C124.74,21.7949999 124.77,21.78 124.83,21.78 C125.070001,21.6599994 125.399998,21.6 125.82,21.6 C125.940001,21.6600003 126.045,21.6750001 126.135,21.645 C126.225,21.6149998 126.3,21.6899991 126.36,21.87 C126.720002,21.6899991 127.019999,21.7199988 127.26,21.96 C127.32,21.96 127.38,21.9899997 127.44,22.05 L127.62,22.05 L127.62,21.78 L127.98,22.23 L128.52,22.5 L128.88,22.23 C128.759999,22.4700012 128.7,22.6199997 128.7,22.68 C129.180002,22.68 129.45,22.8899979 129.51,23.31 C129.51,23.5500012 129.629999,23.6999997 129.87,23.76 L129.96,23.94 C129.9,24.0600006 129.9,24.1499997 129.96,24.21 C130.02,24.2700003 130.02,24.3599994 129.96,24.48 C129.96,24.5400003 129.99,24.5999997 130.05,24.66 C130.05,24.7200003 130.08,24.75 130.14,24.75 C130.019999,24.8700006 130.049999,25.0199991 130.23,25.2 L129.96,25.2 L129.96,25.29 C130.140001,25.4100006 130.2,25.5599991 130.14,25.74 C130.08,25.8000003 130.065,25.8749996 130.095,25.965 C130.125,26.0550005 130.11,26.1599994 130.05,26.28 L129.78,26.91 L129.51,27.72 L129.33,27.99 L128.97,28.44 L128.34,29.16 C128.159999,29.3400009 127.890002,29.5499988 127.53,29.79 L126.81,30.33 C126.689999,30.4500006 126.525001,30.5549995 126.315,30.645 C126.104999,30.7350004 125.940001,30.8399994 125.82,30.96 C125.579999,31.2000012 125.325001,31.3349998 125.055,31.365 C124.784999,31.3950001 124.530001,31.4999991 124.29,31.68 L123.84,31.68 C123.659999,31.68 123.6,31.7399994 123.66,31.86 C123.66,31.9800006 123.675,32.0699997 123.705,32.13 C123.735,32.1900003 123.75,32.2499997 123.75,32.31 L123.3,32.76 C123.420001,32.8800006 123.525,32.9999994 123.615,33.12 C123.705,33.2400006 123.72,33.3899991 123.66,33.57 L123.93,33.57 L123.75,33.84 C123.81,33.84 123.855,33.8549998 123.885,33.885 C123.915,33.9150001 123.989999,33.93 124.11,33.93 C123.989999,34.0500006 123.96,34.1549995 124.02,34.245 C124.08,34.3350004 124.14,34.4399994 124.2,34.56 C124.320001,34.8600015 124.469999,34.9500006 124.65,34.83 C124.770001,35.1300015 124.889999,35.2500003 125.01,35.19 L125.19,35.28 L126.09,35.55 C126.210001,35.6700006 126.3,35.73 126.36,35.73 L126.54,35.82 C126.660001,35.82 126.794999,35.8050002 126.945,35.775 C127.095001,35.7449998 127.229999,35.73 127.35,35.73 C127.470001,35.73 127.604999,35.7449998 127.755,35.775 C127.905001,35.8050002 128.039999,35.7900003 128.16,35.73 C128.640002,35.73 128.969999,35.7000003 129.15,35.64 C129.270001,35.64 129.404999,35.6250001 129.555,35.595 C129.705001,35.5649998 129.839999,35.55 129.96,35.55 L130.59,35.37 C130.890001,35.3099997 131.189999,35.2200006 131.49,35.1 L132.39,34.74 C132.630001,34.6199994 132.854999,34.5150004 133.065,34.425 C133.275001,34.3349995 133.499999,34.2600003 133.74,34.2 C133.920001,34.1399997 134.114999,34.0950001 134.325,34.065 C134.535001,34.0349998 134.729999,33.9600006 134.91,33.84 C135.270002,33.5999988 135.539999,33.4500003 135.72,33.39 L136.62,32.94 C136.740001,32.8799997 136.889999,32.8350002 137.07,32.805 C137.250001,32.7749998 137.399999,32.7000006 137.52,32.58 C138.120003,32.3399988 138.539999,32.1300009 138.78,31.95 L139.95,31.41 L140.76,30.96 C141.000001,30.8999997 141.359998,30.7500012 141.84,30.51 L142.2,30.24 C142.320001,30.24 142.395,30.2250002 142.425,30.195 C142.455,30.1649999 142.5,30.15 142.56,30.15 C142.62,30.0899997 142.68,30.0749999 142.74,30.105 C142.8,30.1350002 142.83,30.0900006 142.83,29.97 C142.83,29.7899991 142.889999,29.7 143.01,29.7 C143.130001,29.7 143.235,29.6550004 143.325,29.565 L143.64,29.25 C143.760001,29.1299994 143.879999,29.07 144,29.07 C144.240001,28.9499994 144.39,28.89 144.45,28.89 C144.630001,28.89 144.69,28.9499994 144.63,29.07 C144.57,29.2500009 144.495,29.3699997 144.405,29.43 C144.315,29.4900003 144.210001,29.5499997 144.09,29.61 L143.91,29.88 C143.669999,30.0000006 143.445001,30.1349992 143.235,30.285 C143.024999,30.4350007 142.800001,30.5999991 142.56,30.78 C142.439999,30.8400003 142.335,30.9149995 142.245,31.005 C142.155,31.0950004 142.050001,31.1699997 141.93,31.23 L141.57,31.41 L139.68,32.58 L138.42,33.21 C138.299999,33.2700003 138.165001,33.3449996 138.015,33.435 C137.864999,33.5250005 137.700001,33.6299994 137.52,33.75 C137.399999,33.8700006 137.250001,33.9449998 137.07,33.975 C136.889999,34.0050001 136.740001,34.0499997 136.62,34.11 C136.499999,34.11 136.44,34.1399997 136.44,34.2 C136.319999,34.3800009 136.170001,34.47 135.99,34.47 C135.809999,34.47 135.660001,34.5299994 135.54,34.65 C135.359999,34.7100003 135.090002,34.8599988 134.73,35.1 C134.609999,35.2200006 134.490001,35.28 134.37,35.28 L132.39,36.18 C132.089998,36.3000006 131.820001,36.4049996 131.58,36.495 C131.339999,36.5850004 131.070001,36.6899994 130.77,36.81 C130.589999,36.9300006 130.395001,37.0349996 130.185,37.125 C129.974999,37.2150004 129.780001,37.3199994 129.6,37.44 L128.61,37.71 L128.34,37.71 L128.25,37.8 Z M123.93,29.43 C124.050001,29.5500006 124.050001,29.6399997 123.93,29.7 C123.809999,29.7600003 123.78,29.8499994 123.84,29.97 L123.75,29.88 C123.75,30.0600009 123.72,30.1200003 123.66,30.06 C123.359998,30.06 123.329999,30.1799988 123.57,30.42 L123.57,30.51 C123.690001,30.6900009 123.809999,30.7500003 123.93,30.69 C124.110001,30.69 124.319999,30.6300006 124.56,30.51 L126.09,29.16 C126.270001,28.9799991 126.419999,28.785001 126.54,28.575 C126.660001,28.3649989 126.809999,28.1700009 126.99,27.99 L126.99,27.72 L127.44,27.09 L127.44,26.73 C127.44,26.6099994 127.41,26.5200003 127.35,26.46 L127.35,26.37 C127.35,26.2499994 127.290001,26.19 127.17,26.19 C126.869999,26.19 126.660001,26.1600003 126.54,26.1 L126.45,26.19 C126.45,26.2500003 126.48,26.3099997 126.54,26.37 C126.48,26.37 126.390001,26.4299994 126.27,26.55 C126.21,26.6700006 126.135,26.7449998 126.045,26.775 C125.955,26.8050002 125.88,26.8799994 125.82,27 C125.82,27.0600003 125.79,27.09 125.73,27.09 L125.55,27.09 L125.37,27.18 L125.1,27.81 L124.47,28.44 L124.47,28.71 L124.74,28.71 L123.93,29.43 Z M143.285594,32.939989 C143.402334,32.9395275 143.475469,32.9245313 143.505,32.895 C143.535,32.8649998 143.58,32.85 143.64,32.85 C143.459999,32.5499985 143.429999,32.2500015 143.55,31.95 C143.55,31.8299994 143.490001,31.7999997 143.37,31.86 L143.19,31.86 L143.55,31.41 L143.55,31.32 C143.55,30.9599982 143.490001,30.7500003 143.37,30.69 C143.249999,30.5699994 143.19,30.4650004 143.19,30.375 L143.19,30.15 L143.55,29.97 C143.55,29.7299988 143.460001,29.5500006 143.28,29.43 C143.34,29.1899988 143.280001,28.9800009 143.1,28.8 C143.04,28.8 143.01,28.7100009 143.01,28.53 C143.01,28.4699997 143.025,28.4100003 143.055,28.35 C143.085,28.2899997 143.1,28.2300003 143.1,28.17 C143.340001,28.1099997 143.46,27.9600012 143.46,27.72 L143.19,27.72 C143.19,27.5999994 143.205,27.5100003 143.235,27.45 C143.265,27.3899997 143.28,27.3300003 143.28,27.27 C143.34,27.2099997 143.429999,27.18 143.55,27.18 C143.55,27.1199997 143.535,27.0600003 143.505,27 C143.475,26.9399997 143.46,26.8800003 143.46,26.82 C143.339999,26.6999994 143.28,26.6100003 143.28,26.55 L143.46,26.19 C143.46,26.1299997 143.49,26.0700003 143.55,26.01 L143.1,26.19 C143.16,26.0099991 143.175,25.8450007 143.145,25.695 C143.115,25.5449992 143.159999,25.4100006 143.28,25.29 L143.64,24.57 C143.64,24.4499994 143.61,24.3300006 143.55,24.21 C143.61,24.21 143.64,24.0900012 143.64,23.85 L143.82,23.58 C143.88,23.5199997 143.88,23.4300006 143.82,23.31 C143.579999,23.1899994 143.579999,22.9800015 143.82,22.68 L143.91,22.5 C143.97,22.3199991 144.089999,22.2599997 144.27,22.32 L144.27,21.96 C144.089999,21.96 143.97,21.9300003 143.91,21.87 L143.82,21.78 L144,21.6 C144.120001,21.4799994 144.239999,21.42 144.36,21.42 C144.540001,21.3599997 144.540001,21.2400009 144.36,21.06 L144.9,20.88 L144.9,20.61 L145.08,20.61 C145.14,20.5499997 145.14,20.4600006 145.08,20.34 C145.08,20.0999988 145.229999,20.0399994 145.53,20.16 L145.53,19.98 L146.07,19.98 L146.07,19.71 C146.250001,19.6499997 146.34,19.5300009 146.34,19.35 L146.52,19.53 L147.06,18.99 C147.06,19.1100006 147.09,19.1999997 147.15,19.26 L147.51,19.08 C147.51,19.2000006 147.495,19.2749998 147.465,19.305 C147.435,19.3350001 147.42,19.3799997 147.42,19.44 C147.42,19.5600006 147.45,19.6499997 147.51,19.71 L147.6,19.71 C147.66,19.6499997 147.69,19.5600006 147.69,19.44 L147.69,19.26 C147.810001,19.4400009 147.9,19.6049992 147.96,19.755 C148.02,19.9050007 148.169999,19.9500003 148.41,19.89 C148.530001,20.1900015 148.62,20.34 148.68,20.34 L148.95,20.61 C149.01,20.61 149.04,20.6249999 149.04,20.655 C149.04,20.6850002 149.07,20.7 149.13,20.7 C149.13,20.7600003 149.16,20.79 149.22,20.79 C149.28,20.79 149.31,20.8199997 149.31,20.88 C149.430001,21.0000006 149.609999,21.0000006 149.85,20.88 L149.85,20.97 L149.76,20.97 C149.579999,21.1500009 149.579999,21.2999994 149.76,21.42 C149.82,21.4800003 149.82,21.5399997 149.76,21.6 L149.76,21.87 C150.000001,22.2300018 150.060001,22.4699994 149.94,22.59 L150.12,22.77 C150.06,22.8900006 150,22.95 149.94,22.95 C149.88,22.95 149.82,22.9799997 149.76,23.04 C149.7,23.1600006 149.67,23.3399988 149.67,23.58 L149.76,23.58 C149.940001,23.3999991 150.06,23.3999991 150.12,23.58 C150.12,23.7600009 150.09,23.8799997 150.03,23.94 C149.909999,24.1800012 149.939999,24.4199988 150.12,24.66 L149.58,24.66 L149.76,24.75 C149.76,25.0500015 149.73,25.2599994 149.67,25.38 C149.67,25.4400003 149.64,25.4999997 149.58,25.56 C149.399999,25.7400009 149.369999,25.9499988 149.49,26.19 L149.49,26.28 L149.4,26.37 C149.279999,26.5500009 149.279999,26.6999994 149.4,26.82 L149.4,26.91 L149.67,26.91 C149.429999,27.3900024 149.220001,27.63 149.04,27.63 L149.31,27.99 C149.189999,28.2900015 149.189999,28.4999994 149.31,28.62 L149.04,28.98 L149.31,29.16 C149.31,29.2800006 149.28,29.3999994 149.22,29.52 C149.099999,29.5800003 149.099999,29.6999991 149.22,29.88 L148.86,30.15 C149.100001,30.3300009 149.130001,30.5099991 148.95,30.69 C149.01,30.69 149.055,30.7049999 149.085,30.735 C149.115,30.7650001 149.16,30.78 149.22,30.78 L148.86,30.96 L149.04,31.32 L148.86,31.5 C148.86,31.6800009 148.949999,31.6800009 149.13,31.5 L149.22,31.5 C149.22,31.5600003 149.205,31.6049999 149.175,31.635 C149.145,31.6650001 149.13,31.7099997 149.13,31.77 C148.949999,31.8300003 148.89,31.9499991 148.95,32.13 L148.59,31.95 C148.59,32.1300009 148.739999,32.22 149.04,32.22 L148.68,32.58 L148.86,32.85 L148.68,32.85 C148.68,33.1500015 148.65,33.3299997 148.59,33.39 C148.469999,33.5100006 148.44,33.6149996 148.5,33.705 C148.56,33.7950004 148.530001,33.8699997 148.41,33.93 L148.59,34.02 L148.59,34.47 C148.409999,34.5900006 148.409999,34.7399991 148.59,34.92 C148.65,35.1000009 148.620001,35.2199997 148.5,35.28 C148.620001,35.7000021 148.560001,35.9699994 148.32,36.09 C148.440001,36.3300012 148.589999,36.5549989 148.77,36.765 C148.950001,36.975001 148.980001,37.2299985 148.86,37.53 L148.68,37.53 C148.74,37.7100009 148.77,37.9799982 148.77,38.34 L149.04,38.34 L148.68,38.79 C148.800001,38.79 148.89,38.7600003 148.95,38.7 L148.95,38.97 L149.04,38.97 L149.31,38.61 L149.13,38.61 C149.13,38.4899994 149.145,38.4000003 149.175,38.34 C149.205,38.2799997 149.22,38.2200003 149.22,38.16 C149.22,38.0399994 149.265,37.9500003 149.355,37.89 C149.445,37.8299997 149.52,37.8299997 149.58,37.89 C149.58,37.7099991 149.639999,37.5600006 149.76,37.44 L149.76,37.26 C149.76,37.1999997 149.745,37.1550001 149.715,37.125 C149.685,37.0949999 149.67,37.0500003 149.67,36.99 C149.850001,36.9299997 149.880001,36.8400006 149.76,36.72 L149.76,36.54 L150.12,35.46 L150.12,35.37 L150.48,34.47 L150.75,33.3 C150.870001,33.0599988 150.870001,32.8800006 150.75,32.76 L150.75,32.67 C150.870001,32.5499994 150.93,32.4150007 150.93,32.265 C150.93,32.1149993 150.96,31.9800006 151.02,31.86 L151.29,31.32 C151.29,31.2599997 151.305,31.2000003 151.335,31.14 C151.365,31.0799997 151.38,31.0200003 151.38,30.96 C151.38,30.7799991 151.41,30.6600003 151.47,30.6 C151.590001,30.4199991 151.62,30.2700006 151.56,30.15 L151.56,30.06 C151.56,29.9999997 151.59,29.97 151.65,29.97 C151.65,29.8499994 151.709999,29.7300006 151.83,29.61 C151.709999,29.5499997 151.709999,29.4600006 151.83,29.34 C151.83,29.2799997 151.845,29.2350001 151.875,29.205 C151.905,29.1749998 151.92,29.1300003 151.92,29.07 C151.92,28.7699985 152.039999,28.5000012 152.28,28.26 L152.19,28.26 L152.55,27.45 L152.82,27.18 C152.88,27.1199997 152.91,27.0300006 152.91,26.91 L152.91,26.82 L154.08,26.28 L154.26,26.55 L154.44,26.28 C154.5,26.3400003 154.679999,26.37 154.98,26.37 C155.100001,26.2499994 155.16,26.2799991 155.16,26.46 C155.22,26.5200003 155.28,26.55 155.34,26.55 C155.640002,26.55 155.879999,26.6699988 156.06,26.91 L156.78,27.45 C157.020001,27.5700006 157.17,27.6899994 157.23,27.81 C157.23,27.8700003 157.319999,27.9899991 157.5,28.17 L158.04,28.44 L159.12,29.07 L159.75,29.34 C159.870001,29.4000003 160.004999,29.4599997 160.155,29.52 C160.305001,29.5800003 160.439999,29.61 160.56,29.61 C160.680001,29.6700003 160.889999,29.7 161.19,29.7 C161.490002,29.7600003 161.789999,29.79 162.09,29.79 L162.99,29.79 C163.530003,29.79 163.919999,29.7600003 164.16,29.7 C164.460002,29.7 164.789998,29.6400006 165.15,29.52 L167.13,28.98 C167.19,28.9199997 167.309999,28.89 167.49,28.89 C167.670001,28.89 167.73,28.9799991 167.67,29.16 C167.61,29.3400009 167.490001,29.4599997 167.31,29.52 L166.59,29.88 C166.349999,30.0000006 166.080001,30.0899997 165.78,30.15 L164.7,30.51 L162.63,30.87 C162.509999,30.87 162.360001,30.8849998 162.18,30.915 C161.999999,30.9450001 161.850001,30.96 161.73,30.96 C161.489999,30.96 161.265001,30.9749998 161.055,31.005 C160.844999,31.0350001 160.620001,31.05 160.38,31.05 C159.839997,31.05 159.420002,31.0200003 159.12,30.96 C158.939999,30.96 158.775001,30.9300003 158.625,30.87 C158.474999,30.8099997 158.310001,30.7500003 158.13,30.69 L157.68,30.51 L157.32,30.24 L157.14,30.24 C156.899999,30.24 156.75,30.1200012 156.69,29.88 C156.449999,29.88 156.3,29.8200006 156.24,29.7 C156.24,29.6399997 156.21,29.6249998 156.15,29.655 C156.09,29.6850002 156.03,29.6700003 155.97,29.61 C155.849999,29.5499997 155.76,29.52 155.7,29.52 C155.64,29.52 155.550001,29.4600006 155.43,29.34 L155.07,29.07 C154.769999,28.8899991 154.59,28.9499985 154.53,29.25 C154.47,29.4300009 154.320001,29.6999982 154.08,30.06 C154.200001,30.1800006 154.215,30.2699997 154.125,30.33 C154.035,30.3900003 153.99,30.4799994 153.99,30.6 L153.72,31.5 C153.599999,31.5 153.57,31.5899991 153.63,31.77 C153.57,31.77 153.54,31.7999997 153.54,31.86 L153.54,32.04 C153.48,32.1000003 153.48,32.13 153.54,32.13 C153.54,32.3100009 153.51,32.4899991 153.45,32.67 C153.39,32.8500009 153.36,33.0299991 153.36,33.21 L153.09,33.75 L153,33.75 C153.06,33.9300009 153.06,34.1099991 153,34.29 C152.94,34.3500003 152.925,34.3949998 152.955,34.425 C152.985,34.4550001 152.97,34.4999997 152.91,34.56 C152.91,34.6800006 152.925,34.8149992 152.955,34.965 C152.985,35.1150008 152.940001,35.2499994 152.82,35.37 C152.699999,35.4900006 152.67,35.6099994 152.73,35.73 C152.79,35.8500006 152.760001,35.9699994 152.64,36.09 C152.399999,36.2100006 152.369999,36.3599991 152.55,36.54 L152.55,36.81 C152.369999,36.9900009 152.295,37.1699991 152.325,37.35 C152.355,37.5300009 152.34,37.7099991 152.28,37.89 L152.01,38.43 L152.01,38.52 C152.07,38.7600012 152.010001,38.9699991 151.83,39.15 L151.65,39.51 C151.59,39.6300006 151.56,39.7799991 151.56,39.96 C151.56,40.1400009 151.500001,40.3499988 151.38,40.59 C151.259999,40.7100006 151.2,40.8149996 151.2,40.905 C151.2,40.9950004 151.140001,41.0999994 151.02,41.22 L151.02,41.31 C151.02,41.6100015 150.960001,41.7899997 150.84,41.85 C150.9,41.85 150.840001,41.9399991 150.66,42.12 C150.539999,42.3600012 150.48,42.5099997 150.48,42.57 C150.359999,42.6900006 150.33,42.75 150.39,42.75 C150.39,42.8700006 150.36,42.93 150.3,42.93 L150.03,43.11 C149.97,43.11 149.94,43.1249999 149.94,43.155 C149.94,43.1850002 149.91,43.2 149.85,43.2 C149.669999,43.2 149.55,43.2899991 149.49,43.47 L149.13,43.92 C149.009999,43.92 148.890001,43.8600006 148.77,43.74 C148.77,43.9200009 148.710001,43.9800003 148.59,43.92 L148.5,44.01 C148.199999,44.1300006 148.02,44.0700012 147.96,43.83 C147.9,43.8900003 147.84,43.92 147.78,43.92 C147.84,43.7399991 147.810001,43.65 147.69,43.65 C147.509999,43.7100003 147.270002,43.6800006 146.97,43.56 C147.090001,43.3199988 147.030001,43.2 146.79,43.2 L146.7,43.11 L146.25,42.3 L146.43,42.03 L145.89,42.03 L146.07,41.67 L145.89,41.67 L145.89,41.4 L145.71,41.4 L145.71,41.13 L145.44,41.13 C145.560001,40.9499991 145.560001,40.7850008 145.44,40.635 C145.319999,40.4849992 145.349999,40.3200009 145.53,40.14 C145.289999,40.0799997 145.14,39.9000015 145.08,39.6 C145.08,39.3599988 144.990001,39.1800006 144.81,39.06 C144.75,38.9999997 144.72,38.8500012 144.72,38.61 C144.599999,38.4899994 144.54,38.4000003 144.54,38.34 C144.54,38.1599991 144.51,38.0400003 144.45,37.98 L144.45,37.71 L144.81,37.53 C144.689999,37.4699997 144.540001,37.44 144.36,37.44 C144.36,37.3799997 144.375,37.35 144.405,37.35 C144.435,37.35 144.45,37.3200003 144.45,37.26 C144.45,37.0799991 144.42,36.9300006 144.36,36.81 L144.36,36.54 C144.42,36.4199994 144.390001,36.3000006 144.27,36.18 C144.21,36.1199997 144.18,36.0000009 144.18,35.82 L144.18,35.19 C144.18,35.1299997 144.195,35.0700003 144.225,35.01 C144.255,34.9499997 144.27,34.8600006 144.27,34.74 L143.91,34.56 L144.36,34.29 C144.119999,34.1699994 144.045,34.0500006 144.135,33.93 C144.225,33.8099994 144.3,33.6900006 144.36,33.57 L144.09,33.57 L143.91,33.75 C143.85,33.75 143.760001,33.6900006 143.64,33.57 C143.58,33.5099997 143.55,33.4500003 143.55,33.39 C143.669998,33.2100028 143.580005,33.0600067 143.280018,32.9400073 L143.285594,32.939989 Z M144.27,24.03 C144.149999,23.8499991 144.06,23.7899997 144,23.85 C143.94,23.9100003 143.91,23.94 143.91,23.94 C144.030001,24.1200009 144.149999,24.1500006 144.27,24.03 Z"></path>
        </g>
    </g>
</svg>